M48
; DRILL file KiCad 10.0.4 date 2026-07-16T15:52:15
; FORMAT={-:-/ absolute / metric / decimal}
; #@! TF.CreationDate,2026-07-16T15:52:15-05:00
; #@! TF.GenerationSoftware,Kicad,Pcbnew,10.0.4
; #@! TF.FileFunction,Plated,1,2,PTH
FMAT,2
METRIC
; #@! TA.AperFunction,Plated,PTH,ViaDrill
T1C0.100
; #@! TA.AperFunction,Plated,PTH,ComponentDrill
T2C0.200
; #@! TA.AperFunction,Plated,PTH,ComponentDrill
T3C0.400
; #@! TA.AperFunction,Plated,PTH,ComponentDrill
T4C0.600
; #@! TA.AperFunction,Plated,PTH,ComponentDrill
T5C1.000
%
G90
G05
T1
X106.5Y-80.75
X108.0Y-54.09
X108.5Y-38.25
X108.5Y-52.82
X109.5Y-83.25
X109.5Y-89.75
X110.0Y-39.5
X110.0Y-60.25
X110.0Y-67.0
X110.0Y-71.0
X111.335Y-56.64
X111.75Y-63.5
X113.0Y-79.0
X113.5Y-55.0
X113.75Y-65.75
X113.75Y-87.75
X113.751Y-78.078
X115.0Y-60.0
X115.75Y-72.25
X116.269Y-77.993
X116.75Y-72.0
X118.5Y-63.25
X119.75Y-65.25
X119.75Y-87.5
X120.971Y-70.221
X121.5Y-59.5
X124.75Y-44.25
X125.0Y-68.0
X125.5Y-56.25
X125.75Y-63.0
X125.75Y-80.75
X126.0Y-54.09
X126.0Y-61.0
X126.25Y-38.5
X126.6Y-52.75
X127.75Y-66.0
X127.75Y-70.0
X127.9Y-83.85
X129.5Y-68.0
X129.5Y-68.0
X129.5Y-70.25
X130.25Y-80.5
T2
X114.35Y-45.4
X114.35Y-46.8
X115.05Y-44.7
X115.05Y-46.1
X115.05Y-47.5
X115.75Y-45.4
X115.75Y-46.8
X116.45Y-44.7
X116.45Y-46.1
X116.45Y-47.5
X117.15Y-45.4
X117.15Y-46.8
T3
X113.8Y-89.13
X113.8Y-90.48
X114.65Y-89.13
X114.65Y-90.48
X115.5Y-89.13
X115.5Y-90.48
X116.35Y-89.13
X116.35Y-90.48
X117.2Y-89.13
X117.2Y-90.48
X118.05Y-89.13
X118.05Y-90.48
X118.9Y-89.13
X118.9Y-90.48
X119.75Y-89.13
X119.75Y-90.48
T5
X105.0Y-39.34
X105.0Y-41.88
X105.0Y-44.42
X105.0Y-46.96
X105.0Y-49.5
X105.0Y-52.04
X105.0Y-54.58
X105.0Y-57.12
X105.0Y-59.66
X105.0Y-62.2
X105.0Y-64.74
X105.0Y-67.28
X105.0Y-69.82
X105.0Y-72.36
X129.0Y-39.64
X129.0Y-42.18
X129.0Y-44.72
X129.0Y-47.26
X129.0Y-49.8
X129.0Y-52.34
X129.0Y-54.88
X129.0Y-57.42
X129.0Y-59.96
X129.0Y-62.5
T4
G00X112.45Y-86.52
M15
G01X112.45Y-85.72
M16
G05
G00X112.45Y-90.25
M15
G01X112.45Y-88.75
M16
G05
G00X121.1Y-86.52
M15
G01X121.1Y-85.72
M16
G05
G00X121.1Y-90.25
M15
G01X121.1Y-88.75
M16
G05
M30
