%TF.GenerationSoftware,KiCad,Pcbnew,10.0.4*%
%TF.CreationDate,2026-07-16T15:51:38-05:00*%
%TF.ProjectId,NEXUS-ESP32-DevKit,4e455855-532d-4455-9350-33322d446576,rev?*%
%TF.SameCoordinates,Original*%
%TF.FileFunction,Legend,Top*%
%TF.FilePolarity,Positive*%
%FSLAX46Y46*%
G04 Gerber Fmt 4.6, Leading zero omitted, Abs format (unit mm)*
G04 Created by KiCad (PCBNEW 10.0.4) date 2026-07-16 15:51:38*
%MOMM*%
%LPD*%
G01*
G04 APERTURE LIST*
%ADD10C,0.120000*%
%ADD11C,0.150000*%
G04 APERTURE END LIST*
D10*
X127791906Y-62378947D02*
X127791906Y-62445613D01*
X127791906Y-62445613D02*
X127758573Y-62512280D01*
X127758573Y-62512280D02*
X127725240Y-62545613D01*
X127725240Y-62545613D02*
X127658573Y-62578947D01*
X127658573Y-62578947D02*
X127525240Y-62612280D01*
X127525240Y-62612280D02*
X127358573Y-62612280D01*
X127358573Y-62612280D02*
X127225240Y-62578947D01*
X127225240Y-62578947D02*
X127158573Y-62545613D01*
X127158573Y-62545613D02*
X127125240Y-62512280D01*
X127125240Y-62512280D02*
X127091906Y-62445613D01*
X127091906Y-62445613D02*
X127091906Y-62378947D01*
X127091906Y-62378947D02*
X127125240Y-62312280D01*
X127125240Y-62312280D02*
X127158573Y-62278947D01*
X127158573Y-62278947D02*
X127225240Y-62245613D01*
X127225240Y-62245613D02*
X127358573Y-62212280D01*
X127358573Y-62212280D02*
X127525240Y-62212280D01*
X127525240Y-62212280D02*
X127658573Y-62245613D01*
X127658573Y-62245613D02*
X127725240Y-62278947D01*
X127725240Y-62278947D02*
X127758573Y-62312280D01*
X127758573Y-62312280D02*
X127791906Y-62378947D01*
X127558573Y-63212280D02*
X127091906Y-63212280D01*
X127825240Y-63045614D02*
X127325240Y-62878947D01*
X127325240Y-62878947D02*
X127325240Y-63312280D01*
X127091906Y-59862280D02*
X127091906Y-59462280D01*
X127091906Y-59662280D02*
X127791906Y-59662280D01*
X127791906Y-59662280D02*
X127691906Y-59595613D01*
X127691906Y-59595613D02*
X127625240Y-59528947D01*
X127625240Y-59528947D02*
X127591906Y-59462280D01*
X127791906Y-60462280D02*
X127791906Y-60328947D01*
X127791906Y-60328947D02*
X127758573Y-60262280D01*
X127758573Y-60262280D02*
X127725240Y-60228947D01*
X127725240Y-60228947D02*
X127625240Y-60162280D01*
X127625240Y-60162280D02*
X127491906Y-60128947D01*
X127491906Y-60128947D02*
X127225240Y-60128947D01*
X127225240Y-60128947D02*
X127158573Y-60162280D01*
X127158573Y-60162280D02*
X127125240Y-60195614D01*
X127125240Y-60195614D02*
X127091906Y-60262280D01*
X127091906Y-60262280D02*
X127091906Y-60395614D01*
X127091906Y-60395614D02*
X127125240Y-60462280D01*
X127125240Y-60462280D02*
X127158573Y-60495614D01*
X127158573Y-60495614D02*
X127225240Y-60528947D01*
X127225240Y-60528947D02*
X127391906Y-60528947D01*
X127391906Y-60528947D02*
X127458573Y-60495614D01*
X127458573Y-60495614D02*
X127491906Y-60462280D01*
X127491906Y-60462280D02*
X127525240Y-60395614D01*
X127525240Y-60395614D02*
X127525240Y-60262280D01*
X127525240Y-60262280D02*
X127491906Y-60195614D01*
X127491906Y-60195614D02*
X127458573Y-60162280D01*
X127458573Y-60162280D02*
X127391906Y-60128947D01*
X127091906Y-57362280D02*
X127091906Y-56962280D01*
X127091906Y-57162280D02*
X127791906Y-57162280D01*
X127791906Y-57162280D02*
X127691906Y-57095613D01*
X127691906Y-57095613D02*
X127625240Y-57028947D01*
X127625240Y-57028947D02*
X127591906Y-56962280D01*
X127791906Y-57595614D02*
X127791906Y-58062280D01*
X127791906Y-58062280D02*
X127091906Y-57762280D01*
X127791906Y-54628947D02*
X127791906Y-54695613D01*
X127791906Y-54695613D02*
X127758573Y-54762280D01*
X127758573Y-54762280D02*
X127725240Y-54795613D01*
X127725240Y-54795613D02*
X127658573Y-54828947D01*
X127658573Y-54828947D02*
X127525240Y-54862280D01*
X127525240Y-54862280D02*
X127358573Y-54862280D01*
X127358573Y-54862280D02*
X127225240Y-54828947D01*
X127225240Y-54828947D02*
X127158573Y-54795613D01*
X127158573Y-54795613D02*
X127125240Y-54762280D01*
X127125240Y-54762280D02*
X127091906Y-54695613D01*
X127091906Y-54695613D02*
X127091906Y-54628947D01*
X127091906Y-54628947D02*
X127125240Y-54562280D01*
X127125240Y-54562280D02*
X127158573Y-54528947D01*
X127158573Y-54528947D02*
X127225240Y-54495613D01*
X127225240Y-54495613D02*
X127358573Y-54462280D01*
X127358573Y-54462280D02*
X127525240Y-54462280D01*
X127525240Y-54462280D02*
X127658573Y-54495613D01*
X127658573Y-54495613D02*
X127725240Y-54528947D01*
X127725240Y-54528947D02*
X127758573Y-54562280D01*
X127758573Y-54562280D02*
X127791906Y-54628947D01*
X127791906Y-55495614D02*
X127791906Y-55162280D01*
X127791906Y-55162280D02*
X127458573Y-55128947D01*
X127458573Y-55128947D02*
X127491906Y-55162280D01*
X127491906Y-55162280D02*
X127525240Y-55228947D01*
X127525240Y-55228947D02*
X127525240Y-55395614D01*
X127525240Y-55395614D02*
X127491906Y-55462280D01*
X127491906Y-55462280D02*
X127458573Y-55495614D01*
X127458573Y-55495614D02*
X127391906Y-55528947D01*
X127391906Y-55528947D02*
X127225240Y-55528947D01*
X127225240Y-55528947D02*
X127158573Y-55495614D01*
X127158573Y-55495614D02*
X127125240Y-55462280D01*
X127125240Y-55462280D02*
X127091906Y-55395614D01*
X127091906Y-55395614D02*
X127091906Y-55228947D01*
X127091906Y-55228947D02*
X127125240Y-55162280D01*
X127125240Y-55162280D02*
X127158573Y-55128947D01*
X127091906Y-52362280D02*
X127091906Y-51962280D01*
X127091906Y-52162280D02*
X127791906Y-52162280D01*
X127791906Y-52162280D02*
X127691906Y-52095613D01*
X127691906Y-52095613D02*
X127625240Y-52028947D01*
X127625240Y-52028947D02*
X127591906Y-51962280D01*
X127491906Y-52762280D02*
X127525240Y-52695614D01*
X127525240Y-52695614D02*
X127558573Y-52662280D01*
X127558573Y-52662280D02*
X127625240Y-52628947D01*
X127625240Y-52628947D02*
X127658573Y-52628947D01*
X127658573Y-52628947D02*
X127725240Y-52662280D01*
X127725240Y-52662280D02*
X127758573Y-52695614D01*
X127758573Y-52695614D02*
X127791906Y-52762280D01*
X127791906Y-52762280D02*
X127791906Y-52895614D01*
X127791906Y-52895614D02*
X127758573Y-52962280D01*
X127758573Y-52962280D02*
X127725240Y-52995614D01*
X127725240Y-52995614D02*
X127658573Y-53028947D01*
X127658573Y-53028947D02*
X127625240Y-53028947D01*
X127625240Y-53028947D02*
X127558573Y-52995614D01*
X127558573Y-52995614D02*
X127525240Y-52962280D01*
X127525240Y-52962280D02*
X127491906Y-52895614D01*
X127491906Y-52895614D02*
X127491906Y-52762280D01*
X127491906Y-52762280D02*
X127458573Y-52695614D01*
X127458573Y-52695614D02*
X127425240Y-52662280D01*
X127425240Y-52662280D02*
X127358573Y-52628947D01*
X127358573Y-52628947D02*
X127225240Y-52628947D01*
X127225240Y-52628947D02*
X127158573Y-52662280D01*
X127158573Y-52662280D02*
X127125240Y-52695614D01*
X127125240Y-52695614D02*
X127091906Y-52762280D01*
X127091906Y-52762280D02*
X127091906Y-52895614D01*
X127091906Y-52895614D02*
X127125240Y-52962280D01*
X127125240Y-52962280D02*
X127158573Y-52995614D01*
X127158573Y-52995614D02*
X127225240Y-53028947D01*
X127225240Y-53028947D02*
X127358573Y-53028947D01*
X127358573Y-53028947D02*
X127425240Y-52995614D01*
X127425240Y-52995614D02*
X127458573Y-52962280D01*
X127458573Y-52962280D02*
X127491906Y-52895614D01*
X127091906Y-49612280D02*
X127091906Y-49212280D01*
X127091906Y-49412280D02*
X127791906Y-49412280D01*
X127791906Y-49412280D02*
X127691906Y-49345613D01*
X127691906Y-49345613D02*
X127625240Y-49278947D01*
X127625240Y-49278947D02*
X127591906Y-49212280D01*
X127091906Y-49945614D02*
X127091906Y-50078947D01*
X127091906Y-50078947D02*
X127125240Y-50145614D01*
X127125240Y-50145614D02*
X127158573Y-50178947D01*
X127158573Y-50178947D02*
X127258573Y-50245614D01*
X127258573Y-50245614D02*
X127391906Y-50278947D01*
X127391906Y-50278947D02*
X127658573Y-50278947D01*
X127658573Y-50278947D02*
X127725240Y-50245614D01*
X127725240Y-50245614D02*
X127758573Y-50212280D01*
X127758573Y-50212280D02*
X127791906Y-50145614D01*
X127791906Y-50145614D02*
X127791906Y-50012280D01*
X127791906Y-50012280D02*
X127758573Y-49945614D01*
X127758573Y-49945614D02*
X127725240Y-49912280D01*
X127725240Y-49912280D02*
X127658573Y-49878947D01*
X127658573Y-49878947D02*
X127491906Y-49878947D01*
X127491906Y-49878947D02*
X127425240Y-49912280D01*
X127425240Y-49912280D02*
X127391906Y-49945614D01*
X127391906Y-49945614D02*
X127358573Y-50012280D01*
X127358573Y-50012280D02*
X127358573Y-50145614D01*
X127358573Y-50145614D02*
X127391906Y-50212280D01*
X127391906Y-50212280D02*
X127425240Y-50245614D01*
X127425240Y-50245614D02*
X127491906Y-50278947D01*
X127725240Y-46962280D02*
X127758573Y-46995613D01*
X127758573Y-46995613D02*
X127791906Y-47062280D01*
X127791906Y-47062280D02*
X127791906Y-47228947D01*
X127791906Y-47228947D02*
X127758573Y-47295613D01*
X127758573Y-47295613D02*
X127725240Y-47328947D01*
X127725240Y-47328947D02*
X127658573Y-47362280D01*
X127658573Y-47362280D02*
X127591906Y-47362280D01*
X127591906Y-47362280D02*
X127491906Y-47328947D01*
X127491906Y-47328947D02*
X127091906Y-46928947D01*
X127091906Y-46928947D02*
X127091906Y-47362280D01*
X127091906Y-48028947D02*
X127091906Y-47628947D01*
X127091906Y-47828947D02*
X127791906Y-47828947D01*
X127791906Y-47828947D02*
X127691906Y-47762280D01*
X127691906Y-47762280D02*
X127625240Y-47695614D01*
X127625240Y-47695614D02*
X127591906Y-47628947D01*
X127725240Y-44212280D02*
X127758573Y-44245613D01*
X127758573Y-44245613D02*
X127791906Y-44312280D01*
X127791906Y-44312280D02*
X127791906Y-44478947D01*
X127791906Y-44478947D02*
X127758573Y-44545613D01*
X127758573Y-44545613D02*
X127725240Y-44578947D01*
X127725240Y-44578947D02*
X127658573Y-44612280D01*
X127658573Y-44612280D02*
X127591906Y-44612280D01*
X127591906Y-44612280D02*
X127491906Y-44578947D01*
X127491906Y-44578947D02*
X127091906Y-44178947D01*
X127091906Y-44178947D02*
X127091906Y-44612280D01*
X127725240Y-44878947D02*
X127758573Y-44912280D01*
X127758573Y-44912280D02*
X127791906Y-44978947D01*
X127791906Y-44978947D02*
X127791906Y-45145614D01*
X127791906Y-45145614D02*
X127758573Y-45212280D01*
X127758573Y-45212280D02*
X127725240Y-45245614D01*
X127725240Y-45245614D02*
X127658573Y-45278947D01*
X127658573Y-45278947D02*
X127591906Y-45278947D01*
X127591906Y-45278947D02*
X127491906Y-45245614D01*
X127491906Y-45245614D02*
X127091906Y-44845614D01*
X127091906Y-44845614D02*
X127091906Y-45278947D01*
X127725240Y-41712280D02*
X127758573Y-41745613D01*
X127758573Y-41745613D02*
X127791906Y-41812280D01*
X127791906Y-41812280D02*
X127791906Y-41978947D01*
X127791906Y-41978947D02*
X127758573Y-42045613D01*
X127758573Y-42045613D02*
X127725240Y-42078947D01*
X127725240Y-42078947D02*
X127658573Y-42112280D01*
X127658573Y-42112280D02*
X127591906Y-42112280D01*
X127591906Y-42112280D02*
X127491906Y-42078947D01*
X127491906Y-42078947D02*
X127091906Y-41678947D01*
X127091906Y-41678947D02*
X127091906Y-42112280D01*
X127791906Y-42345614D02*
X127791906Y-42778947D01*
X127791906Y-42778947D02*
X127525240Y-42545614D01*
X127525240Y-42545614D02*
X127525240Y-42645614D01*
X127525240Y-42645614D02*
X127491906Y-42712280D01*
X127491906Y-42712280D02*
X127458573Y-42745614D01*
X127458573Y-42745614D02*
X127391906Y-42778947D01*
X127391906Y-42778947D02*
X127225240Y-42778947D01*
X127225240Y-42778947D02*
X127158573Y-42745614D01*
X127158573Y-42745614D02*
X127125240Y-42712280D01*
X127125240Y-42712280D02*
X127091906Y-42645614D01*
X127091906Y-42645614D02*
X127091906Y-42445614D01*
X127091906Y-42445614D02*
X127125240Y-42378947D01*
X127125240Y-42378947D02*
X127158573Y-42345614D01*
X127758573Y-39112280D02*
X127791906Y-39045613D01*
X127791906Y-39045613D02*
X127791906Y-38945613D01*
X127791906Y-38945613D02*
X127758573Y-38845613D01*
X127758573Y-38845613D02*
X127691906Y-38778947D01*
X127691906Y-38778947D02*
X127625240Y-38745613D01*
X127625240Y-38745613D02*
X127491906Y-38712280D01*
X127491906Y-38712280D02*
X127391906Y-38712280D01*
X127391906Y-38712280D02*
X127258573Y-38745613D01*
X127258573Y-38745613D02*
X127191906Y-38778947D01*
X127191906Y-38778947D02*
X127125240Y-38845613D01*
X127125240Y-38845613D02*
X127091906Y-38945613D01*
X127091906Y-38945613D02*
X127091906Y-39012280D01*
X127091906Y-39012280D02*
X127125240Y-39112280D01*
X127125240Y-39112280D02*
X127158573Y-39145613D01*
X127158573Y-39145613D02*
X127391906Y-39145613D01*
X127391906Y-39145613D02*
X127391906Y-39012280D01*
X127091906Y-39445613D02*
X127791906Y-39445613D01*
X127791906Y-39445613D02*
X127091906Y-39845613D01*
X127091906Y-39845613D02*
X127791906Y-39845613D01*
X127091906Y-40178946D02*
X127791906Y-40178946D01*
X127791906Y-40178946D02*
X127791906Y-40345613D01*
X127791906Y-40345613D02*
X127758573Y-40445613D01*
X127758573Y-40445613D02*
X127691906Y-40512280D01*
X127691906Y-40512280D02*
X127625240Y-40545613D01*
X127625240Y-40545613D02*
X127491906Y-40578946D01*
X127491906Y-40578946D02*
X127391906Y-40578946D01*
X127391906Y-40578946D02*
X127258573Y-40545613D01*
X127258573Y-40545613D02*
X127191906Y-40512280D01*
X127191906Y-40512280D02*
X127125240Y-40445613D01*
X127125240Y-40445613D02*
X127091906Y-40345613D01*
X127091906Y-40345613D02*
X127091906Y-40178946D01*
X106241426Y-72637719D02*
X106208093Y-72704386D01*
X106208093Y-72704386D02*
X106208093Y-72804386D01*
X106208093Y-72804386D02*
X106241426Y-72904386D01*
X106241426Y-72904386D02*
X106308093Y-72971053D01*
X106308093Y-72971053D02*
X106374760Y-73004386D01*
X106374760Y-73004386D02*
X106508093Y-73037719D01*
X106508093Y-73037719D02*
X106608093Y-73037719D01*
X106608093Y-73037719D02*
X106741426Y-73004386D01*
X106741426Y-73004386D02*
X106808093Y-72971053D01*
X106808093Y-72971053D02*
X106874760Y-72904386D01*
X106874760Y-72904386D02*
X106908093Y-72804386D01*
X106908093Y-72804386D02*
X106908093Y-72737719D01*
X106908093Y-72737719D02*
X106874760Y-72637719D01*
X106874760Y-72637719D02*
X106841426Y-72604386D01*
X106841426Y-72604386D02*
X106608093Y-72604386D01*
X106608093Y-72604386D02*
X106608093Y-72737719D01*
X106908093Y-72304386D02*
X106208093Y-72304386D01*
X106208093Y-72304386D02*
X106908093Y-71904386D01*
X106908093Y-71904386D02*
X106208093Y-71904386D01*
X106908093Y-71571053D02*
X106208093Y-71571053D01*
X106208093Y-71571053D02*
X106208093Y-71404386D01*
X106208093Y-71404386D02*
X106241426Y-71304386D01*
X106241426Y-71304386D02*
X106308093Y-71237720D01*
X106308093Y-71237720D02*
X106374760Y-71204386D01*
X106374760Y-71204386D02*
X106508093Y-71171053D01*
X106508093Y-71171053D02*
X106608093Y-71171053D01*
X106608093Y-71171053D02*
X106741426Y-71204386D01*
X106741426Y-71204386D02*
X106808093Y-71237720D01*
X106808093Y-71237720D02*
X106874760Y-71304386D01*
X106874760Y-71304386D02*
X106908093Y-71404386D01*
X106908093Y-71404386D02*
X106908093Y-71571053D01*
X106908093Y-69887719D02*
X106908093Y-70287719D01*
X106908093Y-70087719D02*
X106208093Y-70087719D01*
X106208093Y-70087719D02*
X106308093Y-70154386D01*
X106308093Y-70154386D02*
X106374760Y-70221053D01*
X106374760Y-70221053D02*
X106408093Y-70287719D01*
X106208093Y-69654386D02*
X106208093Y-69221052D01*
X106208093Y-69221052D02*
X106474760Y-69454386D01*
X106474760Y-69454386D02*
X106474760Y-69354386D01*
X106474760Y-69354386D02*
X106508093Y-69287719D01*
X106508093Y-69287719D02*
X106541426Y-69254386D01*
X106541426Y-69254386D02*
X106608093Y-69221052D01*
X106608093Y-69221052D02*
X106774760Y-69221052D01*
X106774760Y-69221052D02*
X106841426Y-69254386D01*
X106841426Y-69254386D02*
X106874760Y-69287719D01*
X106874760Y-69287719D02*
X106908093Y-69354386D01*
X106908093Y-69354386D02*
X106908093Y-69554386D01*
X106908093Y-69554386D02*
X106874760Y-69621052D01*
X106874760Y-69621052D02*
X106841426Y-69654386D01*
X106908093Y-67387719D02*
X106908093Y-67787719D01*
X106908093Y-67587719D02*
X106208093Y-67587719D01*
X106208093Y-67587719D02*
X106308093Y-67654386D01*
X106308093Y-67654386D02*
X106374760Y-67721053D01*
X106374760Y-67721053D02*
X106408093Y-67787719D01*
X106441426Y-66787719D02*
X106908093Y-66787719D01*
X106174760Y-66954386D02*
X106674760Y-67121052D01*
X106674760Y-67121052D02*
X106674760Y-66687719D01*
X106274760Y-65287719D02*
X106241426Y-65254386D01*
X106241426Y-65254386D02*
X106208093Y-65187719D01*
X106208093Y-65187719D02*
X106208093Y-65021053D01*
X106208093Y-65021053D02*
X106241426Y-64954386D01*
X106241426Y-64954386D02*
X106274760Y-64921053D01*
X106274760Y-64921053D02*
X106341426Y-64887719D01*
X106341426Y-64887719D02*
X106408093Y-64887719D01*
X106408093Y-64887719D02*
X106508093Y-64921053D01*
X106508093Y-64921053D02*
X106908093Y-65321053D01*
X106908093Y-65321053D02*
X106908093Y-64887719D01*
X106208093Y-64654386D02*
X106208093Y-64187719D01*
X106208093Y-64187719D02*
X106908093Y-64487719D01*
X106274760Y-62537719D02*
X106241426Y-62504386D01*
X106241426Y-62504386D02*
X106208093Y-62437719D01*
X106208093Y-62437719D02*
X106208093Y-62271053D01*
X106208093Y-62271053D02*
X106241426Y-62204386D01*
X106241426Y-62204386D02*
X106274760Y-62171053D01*
X106274760Y-62171053D02*
X106341426Y-62137719D01*
X106341426Y-62137719D02*
X106408093Y-62137719D01*
X106408093Y-62137719D02*
X106508093Y-62171053D01*
X106508093Y-62171053D02*
X106908093Y-62571053D01*
X106908093Y-62571053D02*
X106908093Y-62137719D01*
X106208093Y-61537719D02*
X106208093Y-61671052D01*
X106208093Y-61671052D02*
X106241426Y-61737719D01*
X106241426Y-61737719D02*
X106274760Y-61771052D01*
X106274760Y-61771052D02*
X106374760Y-61837719D01*
X106374760Y-61837719D02*
X106508093Y-61871052D01*
X106508093Y-61871052D02*
X106774760Y-61871052D01*
X106774760Y-61871052D02*
X106841426Y-61837719D01*
X106841426Y-61837719D02*
X106874760Y-61804386D01*
X106874760Y-61804386D02*
X106908093Y-61737719D01*
X106908093Y-61737719D02*
X106908093Y-61604386D01*
X106908093Y-61604386D02*
X106874760Y-61537719D01*
X106874760Y-61537719D02*
X106841426Y-61504386D01*
X106841426Y-61504386D02*
X106774760Y-61471052D01*
X106774760Y-61471052D02*
X106608093Y-61471052D01*
X106608093Y-61471052D02*
X106541426Y-61504386D01*
X106541426Y-61504386D02*
X106508093Y-61537719D01*
X106508093Y-61537719D02*
X106474760Y-61604386D01*
X106474760Y-61604386D02*
X106474760Y-61737719D01*
X106474760Y-61737719D02*
X106508093Y-61804386D01*
X106508093Y-61804386D02*
X106541426Y-61837719D01*
X106541426Y-61837719D02*
X106608093Y-61871052D01*
X106274760Y-60037719D02*
X106241426Y-60004386D01*
X106241426Y-60004386D02*
X106208093Y-59937719D01*
X106208093Y-59937719D02*
X106208093Y-59771053D01*
X106208093Y-59771053D02*
X106241426Y-59704386D01*
X106241426Y-59704386D02*
X106274760Y-59671053D01*
X106274760Y-59671053D02*
X106341426Y-59637719D01*
X106341426Y-59637719D02*
X106408093Y-59637719D01*
X106408093Y-59637719D02*
X106508093Y-59671053D01*
X106508093Y-59671053D02*
X106908093Y-60071053D01*
X106908093Y-60071053D02*
X106908093Y-59637719D01*
X106208093Y-59004386D02*
X106208093Y-59337719D01*
X106208093Y-59337719D02*
X106541426Y-59371052D01*
X106541426Y-59371052D02*
X106508093Y-59337719D01*
X106508093Y-59337719D02*
X106474760Y-59271052D01*
X106474760Y-59271052D02*
X106474760Y-59104386D01*
X106474760Y-59104386D02*
X106508093Y-59037719D01*
X106508093Y-59037719D02*
X106541426Y-59004386D01*
X106541426Y-59004386D02*
X106608093Y-58971052D01*
X106608093Y-58971052D02*
X106774760Y-58971052D01*
X106774760Y-58971052D02*
X106841426Y-59004386D01*
X106841426Y-59004386D02*
X106874760Y-59037719D01*
X106874760Y-59037719D02*
X106908093Y-59104386D01*
X106908093Y-59104386D02*
X106908093Y-59271052D01*
X106908093Y-59271052D02*
X106874760Y-59337719D01*
X106874760Y-59337719D02*
X106841426Y-59371052D01*
X106208093Y-57571053D02*
X106208093Y-57137719D01*
X106208093Y-57137719D02*
X106474760Y-57371053D01*
X106474760Y-57371053D02*
X106474760Y-57271053D01*
X106474760Y-57271053D02*
X106508093Y-57204386D01*
X106508093Y-57204386D02*
X106541426Y-57171053D01*
X106541426Y-57171053D02*
X106608093Y-57137719D01*
X106608093Y-57137719D02*
X106774760Y-57137719D01*
X106774760Y-57137719D02*
X106841426Y-57171053D01*
X106841426Y-57171053D02*
X106874760Y-57204386D01*
X106874760Y-57204386D02*
X106908093Y-57271053D01*
X106908093Y-57271053D02*
X106908093Y-57471053D01*
X106908093Y-57471053D02*
X106874760Y-57537719D01*
X106874760Y-57537719D02*
X106841426Y-57571053D01*
X106208093Y-56904386D02*
X106208093Y-56471052D01*
X106208093Y-56471052D02*
X106474760Y-56704386D01*
X106474760Y-56704386D02*
X106474760Y-56604386D01*
X106474760Y-56604386D02*
X106508093Y-56537719D01*
X106508093Y-56537719D02*
X106541426Y-56504386D01*
X106541426Y-56504386D02*
X106608093Y-56471052D01*
X106608093Y-56471052D02*
X106774760Y-56471052D01*
X106774760Y-56471052D02*
X106841426Y-56504386D01*
X106841426Y-56504386D02*
X106874760Y-56537719D01*
X106874760Y-56537719D02*
X106908093Y-56604386D01*
X106908093Y-56604386D02*
X106908093Y-56804386D01*
X106908093Y-56804386D02*
X106874760Y-56871052D01*
X106874760Y-56871052D02*
X106841426Y-56904386D01*
X106208093Y-55071053D02*
X106208093Y-54637719D01*
X106208093Y-54637719D02*
X106474760Y-54871053D01*
X106474760Y-54871053D02*
X106474760Y-54771053D01*
X106474760Y-54771053D02*
X106508093Y-54704386D01*
X106508093Y-54704386D02*
X106541426Y-54671053D01*
X106541426Y-54671053D02*
X106608093Y-54637719D01*
X106608093Y-54637719D02*
X106774760Y-54637719D01*
X106774760Y-54637719D02*
X106841426Y-54671053D01*
X106841426Y-54671053D02*
X106874760Y-54704386D01*
X106874760Y-54704386D02*
X106908093Y-54771053D01*
X106908093Y-54771053D02*
X106908093Y-54971053D01*
X106908093Y-54971053D02*
X106874760Y-55037719D01*
X106874760Y-55037719D02*
X106841426Y-55071053D01*
X106274760Y-54371052D02*
X106241426Y-54337719D01*
X106241426Y-54337719D02*
X106208093Y-54271052D01*
X106208093Y-54271052D02*
X106208093Y-54104386D01*
X106208093Y-54104386D02*
X106241426Y-54037719D01*
X106241426Y-54037719D02*
X106274760Y-54004386D01*
X106274760Y-54004386D02*
X106341426Y-53971052D01*
X106341426Y-53971052D02*
X106408093Y-53971052D01*
X106408093Y-53971052D02*
X106508093Y-54004386D01*
X106508093Y-54004386D02*
X106908093Y-54404386D01*
X106908093Y-54404386D02*
X106908093Y-53971052D01*
X106208093Y-52571053D02*
X106208093Y-52137719D01*
X106208093Y-52137719D02*
X106474760Y-52371053D01*
X106474760Y-52371053D02*
X106474760Y-52271053D01*
X106474760Y-52271053D02*
X106508093Y-52204386D01*
X106508093Y-52204386D02*
X106541426Y-52171053D01*
X106541426Y-52171053D02*
X106608093Y-52137719D01*
X106608093Y-52137719D02*
X106774760Y-52137719D01*
X106774760Y-52137719D02*
X106841426Y-52171053D01*
X106841426Y-52171053D02*
X106874760Y-52204386D01*
X106874760Y-52204386D02*
X106908093Y-52271053D01*
X106908093Y-52271053D02*
X106908093Y-52471053D01*
X106908093Y-52471053D02*
X106874760Y-52537719D01*
X106874760Y-52537719D02*
X106841426Y-52571053D01*
X106208093Y-51504386D02*
X106208093Y-51837719D01*
X106208093Y-51837719D02*
X106541426Y-51871052D01*
X106541426Y-51871052D02*
X106508093Y-51837719D01*
X106508093Y-51837719D02*
X106474760Y-51771052D01*
X106474760Y-51771052D02*
X106474760Y-51604386D01*
X106474760Y-51604386D02*
X106508093Y-51537719D01*
X106508093Y-51537719D02*
X106541426Y-51504386D01*
X106541426Y-51504386D02*
X106608093Y-51471052D01*
X106608093Y-51471052D02*
X106774760Y-51471052D01*
X106774760Y-51471052D02*
X106841426Y-51504386D01*
X106841426Y-51504386D02*
X106874760Y-51537719D01*
X106874760Y-51537719D02*
X106908093Y-51604386D01*
X106908093Y-51604386D02*
X106908093Y-51771052D01*
X106908093Y-51771052D02*
X106874760Y-51837719D01*
X106874760Y-51837719D02*
X106841426Y-51871052D01*
X106208093Y-50071053D02*
X106208093Y-49637719D01*
X106208093Y-49637719D02*
X106474760Y-49871053D01*
X106474760Y-49871053D02*
X106474760Y-49771053D01*
X106474760Y-49771053D02*
X106508093Y-49704386D01*
X106508093Y-49704386D02*
X106541426Y-49671053D01*
X106541426Y-49671053D02*
X106608093Y-49637719D01*
X106608093Y-49637719D02*
X106774760Y-49637719D01*
X106774760Y-49637719D02*
X106841426Y-49671053D01*
X106841426Y-49671053D02*
X106874760Y-49704386D01*
X106874760Y-49704386D02*
X106908093Y-49771053D01*
X106908093Y-49771053D02*
X106908093Y-49971053D01*
X106908093Y-49971053D02*
X106874760Y-50037719D01*
X106874760Y-50037719D02*
X106841426Y-50071053D01*
X106441426Y-49037719D02*
X106908093Y-49037719D01*
X106174760Y-49204386D02*
X106674760Y-49371052D01*
X106674760Y-49371052D02*
X106674760Y-48937719D01*
X106208093Y-47571053D02*
X106208093Y-47137719D01*
X106208093Y-47137719D02*
X106474760Y-47371053D01*
X106474760Y-47371053D02*
X106474760Y-47271053D01*
X106474760Y-47271053D02*
X106508093Y-47204386D01*
X106508093Y-47204386D02*
X106541426Y-47171053D01*
X106541426Y-47171053D02*
X106608093Y-47137719D01*
X106608093Y-47137719D02*
X106774760Y-47137719D01*
X106774760Y-47137719D02*
X106841426Y-47171053D01*
X106841426Y-47171053D02*
X106874760Y-47204386D01*
X106874760Y-47204386D02*
X106908093Y-47271053D01*
X106908093Y-47271053D02*
X106908093Y-47471053D01*
X106908093Y-47471053D02*
X106874760Y-47537719D01*
X106874760Y-47537719D02*
X106841426Y-47571053D01*
X106908093Y-46804386D02*
X106908093Y-46671052D01*
X106908093Y-46671052D02*
X106874760Y-46604386D01*
X106874760Y-46604386D02*
X106841426Y-46571052D01*
X106841426Y-46571052D02*
X106741426Y-46504386D01*
X106741426Y-46504386D02*
X106608093Y-46471052D01*
X106608093Y-46471052D02*
X106341426Y-46471052D01*
X106341426Y-46471052D02*
X106274760Y-46504386D01*
X106274760Y-46504386D02*
X106241426Y-46537719D01*
X106241426Y-46537719D02*
X106208093Y-46604386D01*
X106208093Y-46604386D02*
X106208093Y-46737719D01*
X106208093Y-46737719D02*
X106241426Y-46804386D01*
X106241426Y-46804386D02*
X106274760Y-46837719D01*
X106274760Y-46837719D02*
X106341426Y-46871052D01*
X106341426Y-46871052D02*
X106508093Y-46871052D01*
X106508093Y-46871052D02*
X106574760Y-46837719D01*
X106574760Y-46837719D02*
X106608093Y-46804386D01*
X106608093Y-46804386D02*
X106641426Y-46737719D01*
X106641426Y-46737719D02*
X106641426Y-46604386D01*
X106641426Y-46604386D02*
X106608093Y-46537719D01*
X106608093Y-46537719D02*
X106574760Y-46504386D01*
X106574760Y-46504386D02*
X106508093Y-46471052D01*
X106208093Y-45071053D02*
X106208093Y-44637719D01*
X106208093Y-44637719D02*
X106474760Y-44871053D01*
X106474760Y-44871053D02*
X106474760Y-44771053D01*
X106474760Y-44771053D02*
X106508093Y-44704386D01*
X106508093Y-44704386D02*
X106541426Y-44671053D01*
X106541426Y-44671053D02*
X106608093Y-44637719D01*
X106608093Y-44637719D02*
X106774760Y-44637719D01*
X106774760Y-44637719D02*
X106841426Y-44671053D01*
X106841426Y-44671053D02*
X106874760Y-44704386D01*
X106874760Y-44704386D02*
X106908093Y-44771053D01*
X106908093Y-44771053D02*
X106908093Y-44971053D01*
X106908093Y-44971053D02*
X106874760Y-45037719D01*
X106874760Y-45037719D02*
X106841426Y-45071053D01*
X106208093Y-44037719D02*
X106208093Y-44171052D01*
X106208093Y-44171052D02*
X106241426Y-44237719D01*
X106241426Y-44237719D02*
X106274760Y-44271052D01*
X106274760Y-44271052D02*
X106374760Y-44337719D01*
X106374760Y-44337719D02*
X106508093Y-44371052D01*
X106508093Y-44371052D02*
X106774760Y-44371052D01*
X106774760Y-44371052D02*
X106841426Y-44337719D01*
X106841426Y-44337719D02*
X106874760Y-44304386D01*
X106874760Y-44304386D02*
X106908093Y-44237719D01*
X106908093Y-44237719D02*
X106908093Y-44104386D01*
X106908093Y-44104386D02*
X106874760Y-44037719D01*
X106874760Y-44037719D02*
X106841426Y-44004386D01*
X106841426Y-44004386D02*
X106774760Y-43971052D01*
X106774760Y-43971052D02*
X106608093Y-43971052D01*
X106608093Y-43971052D02*
X106541426Y-44004386D01*
X106541426Y-44004386D02*
X106508093Y-44037719D01*
X106508093Y-44037719D02*
X106474760Y-44104386D01*
X106474760Y-44104386D02*
X106474760Y-44237719D01*
X106474760Y-44237719D02*
X106508093Y-44304386D01*
X106508093Y-44304386D02*
X106541426Y-44337719D01*
X106541426Y-44337719D02*
X106608093Y-44371052D01*
X106541426Y-42254386D02*
X106541426Y-42021053D01*
X106908093Y-41921053D02*
X106908093Y-42254386D01*
X106908093Y-42254386D02*
X106208093Y-42254386D01*
X106208093Y-42254386D02*
X106208093Y-41921053D01*
X106908093Y-41621053D02*
X106208093Y-41621053D01*
X106208093Y-41621053D02*
X106908093Y-41221053D01*
X106908093Y-41221053D02*
X106208093Y-41221053D01*
X106208093Y-40321053D02*
X106208093Y-39887719D01*
X106208093Y-39887719D02*
X106474760Y-40121053D01*
X106474760Y-40121053D02*
X106474760Y-40021053D01*
X106474760Y-40021053D02*
X106508093Y-39954386D01*
X106508093Y-39954386D02*
X106541426Y-39921053D01*
X106541426Y-39921053D02*
X106608093Y-39887719D01*
X106608093Y-39887719D02*
X106774760Y-39887719D01*
X106774760Y-39887719D02*
X106841426Y-39921053D01*
X106841426Y-39921053D02*
X106874760Y-39954386D01*
X106874760Y-39954386D02*
X106908093Y-40021053D01*
X106908093Y-40021053D02*
X106908093Y-40221053D01*
X106908093Y-40221053D02*
X106874760Y-40287719D01*
X106874760Y-40287719D02*
X106841426Y-40321053D01*
X106208093Y-39687719D02*
X106908093Y-39454386D01*
X106908093Y-39454386D02*
X106208093Y-39221052D01*
X106208093Y-39054386D02*
X106208093Y-38621052D01*
X106208093Y-38621052D02*
X106474760Y-38854386D01*
X106474760Y-38854386D02*
X106474760Y-38754386D01*
X106474760Y-38754386D02*
X106508093Y-38687719D01*
X106508093Y-38687719D02*
X106541426Y-38654386D01*
X106541426Y-38654386D02*
X106608093Y-38621052D01*
X106608093Y-38621052D02*
X106774760Y-38621052D01*
X106774760Y-38621052D02*
X106841426Y-38654386D01*
X106841426Y-38654386D02*
X106874760Y-38687719D01*
X106874760Y-38687719D02*
X106908093Y-38754386D01*
X106908093Y-38754386D02*
X106908093Y-38954386D01*
X106908093Y-38954386D02*
X106874760Y-39021052D01*
X106874760Y-39021052D02*
X106841426Y-39054386D01*
D11*
X108404761Y-58300057D02*
X108309523Y-58252438D01*
X108309523Y-58252438D02*
X108214285Y-58157200D01*
X108214285Y-58157200D02*
X108071428Y-58014342D01*
X108071428Y-58014342D02*
X107976190Y-57966723D01*
X107976190Y-57966723D02*
X107880952Y-57966723D01*
X107928571Y-58204819D02*
X107833333Y-58157200D01*
X107833333Y-58157200D02*
X107738095Y-58061961D01*
X107738095Y-58061961D02*
X107690476Y-57871485D01*
X107690476Y-57871485D02*
X107690476Y-57538152D01*
X107690476Y-57538152D02*
X107738095Y-57347676D01*
X107738095Y-57347676D02*
X107833333Y-57252438D01*
X107833333Y-57252438D02*
X107928571Y-57204819D01*
X107928571Y-57204819D02*
X108119047Y-57204819D01*
X108119047Y-57204819D02*
X108214285Y-57252438D01*
X108214285Y-57252438D02*
X108309523Y-57347676D01*
X108309523Y-57347676D02*
X108357142Y-57538152D01*
X108357142Y-57538152D02*
X108357142Y-57871485D01*
X108357142Y-57871485D02*
X108309523Y-58061961D01*
X108309523Y-58061961D02*
X108214285Y-58157200D01*
X108214285Y-58157200D02*
X108119047Y-58204819D01*
X108119047Y-58204819D02*
X107928571Y-58204819D01*
X109309523Y-58204819D02*
X108738095Y-58204819D01*
X109023809Y-58204819D02*
X109023809Y-57204819D01*
X109023809Y-57204819D02*
X108928571Y-57347676D01*
X108928571Y-57347676D02*
X108833333Y-57442914D01*
X108833333Y-57442914D02*
X108738095Y-57490533D01*
X128420833Y-70304819D02*
X128087500Y-69828628D01*
X127849405Y-70304819D02*
X127849405Y-69304819D01*
X127849405Y-69304819D02*
X128230357Y-69304819D01*
X128230357Y-69304819D02*
X128325595Y-69352438D01*
X128325595Y-69352438D02*
X128373214Y-69400057D01*
X128373214Y-69400057D02*
X128420833Y-69495295D01*
X128420833Y-69495295D02*
X128420833Y-69638152D01*
X128420833Y-69638152D02*
X128373214Y-69733390D01*
X128373214Y-69733390D02*
X128325595Y-69781009D01*
X128325595Y-69781009D02*
X128230357Y-69828628D01*
X128230357Y-69828628D02*
X127849405Y-69828628D01*
X129277976Y-69304819D02*
X129087500Y-69304819D01*
X129087500Y-69304819D02*
X128992262Y-69352438D01*
X128992262Y-69352438D02*
X128944643Y-69400057D01*
X128944643Y-69400057D02*
X128849405Y-69542914D01*
X128849405Y-69542914D02*
X128801786Y-69733390D01*
X128801786Y-69733390D02*
X128801786Y-70114342D01*
X128801786Y-70114342D02*
X128849405Y-70209580D01*
X128849405Y-70209580D02*
X128897024Y-70257200D01*
X128897024Y-70257200D02*
X128992262Y-70304819D01*
X128992262Y-70304819D02*
X129182738Y-70304819D01*
X129182738Y-70304819D02*
X129277976Y-70257200D01*
X129277976Y-70257200D02*
X129325595Y-70209580D01*
X129325595Y-70209580D02*
X129373214Y-70114342D01*
X129373214Y-70114342D02*
X129373214Y-69876247D01*
X129373214Y-69876247D02*
X129325595Y-69781009D01*
X129325595Y-69781009D02*
X129277976Y-69733390D01*
X129277976Y-69733390D02*
X129182738Y-69685771D01*
X129182738Y-69685771D02*
X128992262Y-69685771D01*
X128992262Y-69685771D02*
X128897024Y-69733390D01*
X128897024Y-69733390D02*
X128849405Y-69781009D01*
X128849405Y-69781009D02*
X128801786Y-69876247D01*
X107170833Y-76054819D02*
X106837500Y-75578628D01*
X106599405Y-76054819D02*
X106599405Y-75054819D01*
X106599405Y-75054819D02*
X106980357Y-75054819D01*
X106980357Y-75054819D02*
X107075595Y-75102438D01*
X107075595Y-75102438D02*
X107123214Y-75150057D01*
X107123214Y-75150057D02*
X107170833Y-75245295D01*
X107170833Y-75245295D02*
X107170833Y-75388152D01*
X107170833Y-75388152D02*
X107123214Y-75483390D01*
X107123214Y-75483390D02*
X107075595Y-75531009D01*
X107075595Y-75531009D02*
X106980357Y-75578628D01*
X106980357Y-75578628D02*
X106599405Y-75578628D01*
X107504167Y-75054819D02*
X108170833Y-75054819D01*
X108170833Y-75054819D02*
X107742262Y-76054819D01*
X126611905Y-74454819D02*
X126611905Y-73454819D01*
X126611905Y-73454819D02*
X126850000Y-73454819D01*
X126850000Y-73454819D02*
X126992857Y-73502438D01*
X126992857Y-73502438D02*
X127088095Y-73597676D01*
X127088095Y-73597676D02*
X127135714Y-73692914D01*
X127135714Y-73692914D02*
X127183333Y-73883390D01*
X127183333Y-73883390D02*
X127183333Y-74026247D01*
X127183333Y-74026247D02*
X127135714Y-74216723D01*
X127135714Y-74216723D02*
X127088095Y-74311961D01*
X127088095Y-74311961D02*
X126992857Y-74407200D01*
X126992857Y-74407200D02*
X126850000Y-74454819D01*
X126850000Y-74454819D02*
X126611905Y-74454819D01*
X128135714Y-74454819D02*
X127564286Y-74454819D01*
X127850000Y-74454819D02*
X127850000Y-73454819D01*
X127850000Y-73454819D02*
X127754762Y-73597676D01*
X127754762Y-73597676D02*
X127659524Y-73692914D01*
X127659524Y-73692914D02*
X127564286Y-73740533D01*
X106824405Y-79454819D02*
X106824405Y-78454819D01*
X106824405Y-78454819D02*
X107062500Y-78454819D01*
X107062500Y-78454819D02*
X107205357Y-78502438D01*
X107205357Y-78502438D02*
X107300595Y-78597676D01*
X107300595Y-78597676D02*
X107348214Y-78692914D01*
X107348214Y-78692914D02*
X107395833Y-78883390D01*
X107395833Y-78883390D02*
X107395833Y-79026247D01*
X107395833Y-79026247D02*
X107348214Y-79216723D01*
X107348214Y-79216723D02*
X107300595Y-79311961D01*
X107300595Y-79311961D02*
X107205357Y-79407200D01*
X107205357Y-79407200D02*
X107062500Y-79454819D01*
X107062500Y-79454819D02*
X106824405Y-79454819D01*
X107776786Y-78550057D02*
X107824405Y-78502438D01*
X107824405Y-78502438D02*
X107919643Y-78454819D01*
X107919643Y-78454819D02*
X108157738Y-78454819D01*
X108157738Y-78454819D02*
X108252976Y-78502438D01*
X108252976Y-78502438D02*
X108300595Y-78550057D01*
X108300595Y-78550057D02*
X108348214Y-78645295D01*
X108348214Y-78645295D02*
X108348214Y-78740533D01*
X108348214Y-78740533D02*
X108300595Y-78883390D01*
X108300595Y-78883390D02*
X107729167Y-79454819D01*
X107729167Y-79454819D02*
X108348214Y-79454819D01*
X123883333Y-66679580D02*
X123835714Y-66727200D01*
X123835714Y-66727200D02*
X123692857Y-66774819D01*
X123692857Y-66774819D02*
X123597619Y-66774819D01*
X123597619Y-66774819D02*
X123454762Y-66727200D01*
X123454762Y-66727200D02*
X123359524Y-66631961D01*
X123359524Y-66631961D02*
X123311905Y-66536723D01*
X123311905Y-66536723D02*
X123264286Y-66346247D01*
X123264286Y-66346247D02*
X123264286Y-66203390D01*
X123264286Y-66203390D02*
X123311905Y-66012914D01*
X123311905Y-66012914D02*
X123359524Y-65917676D01*
X123359524Y-65917676D02*
X123454762Y-65822438D01*
X123454762Y-65822438D02*
X123597619Y-65774819D01*
X123597619Y-65774819D02*
X123692857Y-65774819D01*
X123692857Y-65774819D02*
X123835714Y-65822438D01*
X123835714Y-65822438D02*
X123883333Y-65870057D01*
X124740476Y-65774819D02*
X124550000Y-65774819D01*
X124550000Y-65774819D02*
X124454762Y-65822438D01*
X124454762Y-65822438D02*
X124407143Y-65870057D01*
X124407143Y-65870057D02*
X124311905Y-66012914D01*
X124311905Y-66012914D02*
X124264286Y-66203390D01*
X124264286Y-66203390D02*
X124264286Y-66584342D01*
X124264286Y-66584342D02*
X124311905Y-66679580D01*
X124311905Y-66679580D02*
X124359524Y-66727200D01*
X124359524Y-66727200D02*
X124454762Y-66774819D01*
X124454762Y-66774819D02*
X124645238Y-66774819D01*
X124645238Y-66774819D02*
X124740476Y-66727200D01*
X124740476Y-66727200D02*
X124788095Y-66679580D01*
X124788095Y-66679580D02*
X124835714Y-66584342D01*
X124835714Y-66584342D02*
X124835714Y-66346247D01*
X124835714Y-66346247D02*
X124788095Y-66251009D01*
X124788095Y-66251009D02*
X124740476Y-66203390D01*
X124740476Y-66203390D02*
X124645238Y-66155771D01*
X124645238Y-66155771D02*
X124454762Y-66155771D01*
X124454762Y-66155771D02*
X124359524Y-66203390D01*
X124359524Y-66203390D02*
X124311905Y-66251009D01*
X124311905Y-66251009D02*
X124264286Y-66346247D01*
X124333333Y-78954819D02*
X124000000Y-78478628D01*
X123761905Y-78954819D02*
X123761905Y-77954819D01*
X123761905Y-77954819D02*
X124142857Y-77954819D01*
X124142857Y-77954819D02*
X124238095Y-78002438D01*
X124238095Y-78002438D02*
X124285714Y-78050057D01*
X124285714Y-78050057D02*
X124333333Y-78145295D01*
X124333333Y-78145295D02*
X124333333Y-78288152D01*
X124333333Y-78288152D02*
X124285714Y-78383390D01*
X124285714Y-78383390D02*
X124238095Y-78431009D01*
X124238095Y-78431009D02*
X124142857Y-78478628D01*
X124142857Y-78478628D02*
X123761905Y-78478628D01*
X124714286Y-78050057D02*
X124761905Y-78002438D01*
X124761905Y-78002438D02*
X124857143Y-77954819D01*
X124857143Y-77954819D02*
X125095238Y-77954819D01*
X125095238Y-77954819D02*
X125190476Y-78002438D01*
X125190476Y-78002438D02*
X125238095Y-78050057D01*
X125238095Y-78050057D02*
X125285714Y-78145295D01*
X125285714Y-78145295D02*
X125285714Y-78240533D01*
X125285714Y-78240533D02*
X125238095Y-78383390D01*
X125238095Y-78383390D02*
X124666667Y-78954819D01*
X124666667Y-78954819D02*
X125285714Y-78954819D01*
X110893095Y-75979819D02*
X110893095Y-76789342D01*
X110893095Y-76789342D02*
X110940714Y-76884580D01*
X110940714Y-76884580D02*
X110988333Y-76932200D01*
X110988333Y-76932200D02*
X111083571Y-76979819D01*
X111083571Y-76979819D02*
X111274047Y-76979819D01*
X111274047Y-76979819D02*
X111369285Y-76932200D01*
X111369285Y-76932200D02*
X111416904Y-76884580D01*
X111416904Y-76884580D02*
X111464523Y-76789342D01*
X111464523Y-76789342D02*
X111464523Y-75979819D01*
X111845476Y-75979819D02*
X112464523Y-75979819D01*
X112464523Y-75979819D02*
X112131190Y-76360771D01*
X112131190Y-76360771D02*
X112274047Y-76360771D01*
X112274047Y-76360771D02*
X112369285Y-76408390D01*
X112369285Y-76408390D02*
X112416904Y-76456009D01*
X112416904Y-76456009D02*
X112464523Y-76551247D01*
X112464523Y-76551247D02*
X112464523Y-76789342D01*
X112464523Y-76789342D02*
X112416904Y-76884580D01*
X112416904Y-76884580D02*
X112369285Y-76932200D01*
X112369285Y-76932200D02*
X112274047Y-76979819D01*
X112274047Y-76979819D02*
X111988333Y-76979819D01*
X111988333Y-76979819D02*
X111893095Y-76932200D01*
X111893095Y-76932200D02*
X111845476Y-76884580D01*
X111166666Y-90704819D02*
X111166666Y-91419104D01*
X111166666Y-91419104D02*
X111119047Y-91561961D01*
X111119047Y-91561961D02*
X111023809Y-91657200D01*
X111023809Y-91657200D02*
X110880952Y-91704819D01*
X110880952Y-91704819D02*
X110785714Y-91704819D01*
X112166666Y-91704819D02*
X111595238Y-91704819D01*
X111880952Y-91704819D02*
X111880952Y-90704819D01*
X111880952Y-90704819D02*
X111785714Y-90847676D01*
X111785714Y-90847676D02*
X111690476Y-90942914D01*
X111690476Y-90942914D02*
X111595238Y-90990533D01*
X116154761Y-58300057D02*
X116059523Y-58252438D01*
X116059523Y-58252438D02*
X115964285Y-58157200D01*
X115964285Y-58157200D02*
X115821428Y-58014342D01*
X115821428Y-58014342D02*
X115726190Y-57966723D01*
X115726190Y-57966723D02*
X115630952Y-57966723D01*
X115678571Y-58204819D02*
X115583333Y-58157200D01*
X115583333Y-58157200D02*
X115488095Y-58061961D01*
X115488095Y-58061961D02*
X115440476Y-57871485D01*
X115440476Y-57871485D02*
X115440476Y-57538152D01*
X115440476Y-57538152D02*
X115488095Y-57347676D01*
X115488095Y-57347676D02*
X115583333Y-57252438D01*
X115583333Y-57252438D02*
X115678571Y-57204819D01*
X115678571Y-57204819D02*
X115869047Y-57204819D01*
X115869047Y-57204819D02*
X115964285Y-57252438D01*
X115964285Y-57252438D02*
X116059523Y-57347676D01*
X116059523Y-57347676D02*
X116107142Y-57538152D01*
X116107142Y-57538152D02*
X116107142Y-57871485D01*
X116107142Y-57871485D02*
X116059523Y-58061961D01*
X116059523Y-58061961D02*
X115964285Y-58157200D01*
X115964285Y-58157200D02*
X115869047Y-58204819D01*
X115869047Y-58204819D02*
X115678571Y-58204819D01*
X116488095Y-57300057D02*
X116535714Y-57252438D01*
X116535714Y-57252438D02*
X116630952Y-57204819D01*
X116630952Y-57204819D02*
X116869047Y-57204819D01*
X116869047Y-57204819D02*
X116964285Y-57252438D01*
X116964285Y-57252438D02*
X117011904Y-57300057D01*
X117011904Y-57300057D02*
X117059523Y-57395295D01*
X117059523Y-57395295D02*
X117059523Y-57490533D01*
X117059523Y-57490533D02*
X117011904Y-57633390D01*
X117011904Y-57633390D02*
X116440476Y-58204819D01*
X116440476Y-58204819D02*
X117059523Y-58204819D01*
X124920833Y-58304819D02*
X124587500Y-57828628D01*
X124349405Y-58304819D02*
X124349405Y-57304819D01*
X124349405Y-57304819D02*
X124730357Y-57304819D01*
X124730357Y-57304819D02*
X124825595Y-57352438D01*
X124825595Y-57352438D02*
X124873214Y-57400057D01*
X124873214Y-57400057D02*
X124920833Y-57495295D01*
X124920833Y-57495295D02*
X124920833Y-57638152D01*
X124920833Y-57638152D02*
X124873214Y-57733390D01*
X124873214Y-57733390D02*
X124825595Y-57781009D01*
X124825595Y-57781009D02*
X124730357Y-57828628D01*
X124730357Y-57828628D02*
X124349405Y-57828628D01*
X125254167Y-57304819D02*
X125873214Y-57304819D01*
X125873214Y-57304819D02*
X125539881Y-57685771D01*
X125539881Y-57685771D02*
X125682738Y-57685771D01*
X125682738Y-57685771D02*
X125777976Y-57733390D01*
X125777976Y-57733390D02*
X125825595Y-57781009D01*
X125825595Y-57781009D02*
X125873214Y-57876247D01*
X125873214Y-57876247D02*
X125873214Y-58114342D01*
X125873214Y-58114342D02*
X125825595Y-58209580D01*
X125825595Y-58209580D02*
X125777976Y-58257200D01*
X125777976Y-58257200D02*
X125682738Y-58304819D01*
X125682738Y-58304819D02*
X125397024Y-58304819D01*
X125397024Y-58304819D02*
X125301786Y-58257200D01*
X125301786Y-58257200D02*
X125254167Y-58209580D01*
X124583333Y-61679580D02*
X124535714Y-61727200D01*
X124535714Y-61727200D02*
X124392857Y-61774819D01*
X124392857Y-61774819D02*
X124297619Y-61774819D01*
X124297619Y-61774819D02*
X124154762Y-61727200D01*
X124154762Y-61727200D02*
X124059524Y-61631961D01*
X124059524Y-61631961D02*
X124011905Y-61536723D01*
X124011905Y-61536723D02*
X123964286Y-61346247D01*
X123964286Y-61346247D02*
X123964286Y-61203390D01*
X123964286Y-61203390D02*
X124011905Y-61012914D01*
X124011905Y-61012914D02*
X124059524Y-60917676D01*
X124059524Y-60917676D02*
X124154762Y-60822438D01*
X124154762Y-60822438D02*
X124297619Y-60774819D01*
X124297619Y-60774819D02*
X124392857Y-60774819D01*
X124392857Y-60774819D02*
X124535714Y-60822438D01*
X124535714Y-60822438D02*
X124583333Y-60870057D01*
X124964286Y-60870057D02*
X125011905Y-60822438D01*
X125011905Y-60822438D02*
X125107143Y-60774819D01*
X125107143Y-60774819D02*
X125345238Y-60774819D01*
X125345238Y-60774819D02*
X125440476Y-60822438D01*
X125440476Y-60822438D02*
X125488095Y-60870057D01*
X125488095Y-60870057D02*
X125535714Y-60965295D01*
X125535714Y-60965295D02*
X125535714Y-61060533D01*
X125535714Y-61060533D02*
X125488095Y-61203390D01*
X125488095Y-61203390D02*
X124916667Y-61774819D01*
X124916667Y-61774819D02*
X125535714Y-61774819D01*
X112333333Y-61054819D02*
X112000000Y-60578628D01*
X111761905Y-61054819D02*
X111761905Y-60054819D01*
X111761905Y-60054819D02*
X112142857Y-60054819D01*
X112142857Y-60054819D02*
X112238095Y-60102438D01*
X112238095Y-60102438D02*
X112285714Y-60150057D01*
X112285714Y-60150057D02*
X112333333Y-60245295D01*
X112333333Y-60245295D02*
X112333333Y-60388152D01*
X112333333Y-60388152D02*
X112285714Y-60483390D01*
X112285714Y-60483390D02*
X112238095Y-60531009D01*
X112238095Y-60531009D02*
X112142857Y-60578628D01*
X112142857Y-60578628D02*
X111761905Y-60578628D01*
X113190476Y-60388152D02*
X113190476Y-61054819D01*
X112952381Y-60007200D02*
X112714286Y-60721485D01*
X112714286Y-60721485D02*
X113333333Y-60721485D01*
X116238095Y-62954819D02*
X116238095Y-63764342D01*
X116238095Y-63764342D02*
X116285714Y-63859580D01*
X116285714Y-63859580D02*
X116333333Y-63907200D01*
X116333333Y-63907200D02*
X116428571Y-63954819D01*
X116428571Y-63954819D02*
X116619047Y-63954819D01*
X116619047Y-63954819D02*
X116714285Y-63907200D01*
X116714285Y-63907200D02*
X116761904Y-63859580D01*
X116761904Y-63859580D02*
X116809523Y-63764342D01*
X116809523Y-63764342D02*
X116809523Y-62954819D01*
X117238095Y-63050057D02*
X117285714Y-63002438D01*
X117285714Y-63002438D02*
X117380952Y-62954819D01*
X117380952Y-62954819D02*
X117619047Y-62954819D01*
X117619047Y-62954819D02*
X117714285Y-63002438D01*
X117714285Y-63002438D02*
X117761904Y-63050057D01*
X117761904Y-63050057D02*
X117809523Y-63145295D01*
X117809523Y-63145295D02*
X117809523Y-63240533D01*
X117809523Y-63240533D02*
X117761904Y-63383390D01*
X117761904Y-63383390D02*
X117190476Y-63954819D01*
X117190476Y-63954819D02*
X117809523Y-63954819D01*
X118086779Y-52454819D02*
X118086779Y-53264342D01*
X118086779Y-53264342D02*
X118134398Y-53359580D01*
X118134398Y-53359580D02*
X118182017Y-53407200D01*
X118182017Y-53407200D02*
X118277255Y-53454819D01*
X118277255Y-53454819D02*
X118467731Y-53454819D01*
X118467731Y-53454819D02*
X118562969Y-53407200D01*
X118562969Y-53407200D02*
X118610588Y-53359580D01*
X118610588Y-53359580D02*
X118658207Y-53264342D01*
X118658207Y-53264342D02*
X118658207Y-52454819D01*
X119658207Y-53454819D02*
X119086779Y-53454819D01*
X119372493Y-53454819D02*
X119372493Y-52454819D01*
X119372493Y-52454819D02*
X119277255Y-52597676D01*
X119277255Y-52597676D02*
X119182017Y-52692914D01*
X119182017Y-52692914D02*
X119086779Y-52740533D01*
X124666667Y-87407200D02*
X124809524Y-87454819D01*
X124809524Y-87454819D02*
X125047619Y-87454819D01*
X125047619Y-87454819D02*
X125142857Y-87407200D01*
X125142857Y-87407200D02*
X125190476Y-87359580D01*
X125190476Y-87359580D02*
X125238095Y-87264342D01*
X125238095Y-87264342D02*
X125238095Y-87169104D01*
X125238095Y-87169104D02*
X125190476Y-87073866D01*
X125190476Y-87073866D02*
X125142857Y-87026247D01*
X125142857Y-87026247D02*
X125047619Y-86978628D01*
X125047619Y-86978628D02*
X124857143Y-86931009D01*
X124857143Y-86931009D02*
X124761905Y-86883390D01*
X124761905Y-86883390D02*
X124714286Y-86835771D01*
X124714286Y-86835771D02*
X124666667Y-86740533D01*
X124666667Y-86740533D02*
X124666667Y-86645295D01*
X124666667Y-86645295D02*
X124714286Y-86550057D01*
X124714286Y-86550057D02*
X124761905Y-86502438D01*
X124761905Y-86502438D02*
X124857143Y-86454819D01*
X124857143Y-86454819D02*
X125095238Y-86454819D01*
X125095238Y-86454819D02*
X125238095Y-86502438D01*
X125571429Y-86454819D02*
X125809524Y-87454819D01*
X125809524Y-87454819D02*
X126000000Y-86740533D01*
X126000000Y-86740533D02*
X126190476Y-87454819D01*
X126190476Y-87454819D02*
X126428572Y-86454819D01*
X127333333Y-87454819D02*
X126761905Y-87454819D01*
X127047619Y-87454819D02*
X127047619Y-86454819D01*
X127047619Y-86454819D02*
X126952381Y-86597676D01*
X126952381Y-86597676D02*
X126857143Y-86692914D01*
X126857143Y-86692914D02*
X126761905Y-86740533D01*
X128383333Y-66679580D02*
X128335714Y-66727200D01*
X128335714Y-66727200D02*
X128192857Y-66774819D01*
X128192857Y-66774819D02*
X128097619Y-66774819D01*
X128097619Y-66774819D02*
X127954762Y-66727200D01*
X127954762Y-66727200D02*
X127859524Y-66631961D01*
X127859524Y-66631961D02*
X127811905Y-66536723D01*
X127811905Y-66536723D02*
X127764286Y-66346247D01*
X127764286Y-66346247D02*
X127764286Y-66203390D01*
X127764286Y-66203390D02*
X127811905Y-66012914D01*
X127811905Y-66012914D02*
X127859524Y-65917676D01*
X127859524Y-65917676D02*
X127954762Y-65822438D01*
X127954762Y-65822438D02*
X128097619Y-65774819D01*
X128097619Y-65774819D02*
X128192857Y-65774819D01*
X128192857Y-65774819D02*
X128335714Y-65822438D01*
X128335714Y-65822438D02*
X128383333Y-65870057D01*
X129288095Y-65774819D02*
X128811905Y-65774819D01*
X128811905Y-65774819D02*
X128764286Y-66251009D01*
X128764286Y-66251009D02*
X128811905Y-66203390D01*
X128811905Y-66203390D02*
X128907143Y-66155771D01*
X128907143Y-66155771D02*
X129145238Y-66155771D01*
X129145238Y-66155771D02*
X129240476Y-66203390D01*
X129240476Y-66203390D02*
X129288095Y-66251009D01*
X129288095Y-66251009D02*
X129335714Y-66346247D01*
X129335714Y-66346247D02*
X129335714Y-66584342D01*
X129335714Y-66584342D02*
X129288095Y-66679580D01*
X129288095Y-66679580D02*
X129240476Y-66727200D01*
X129240476Y-66727200D02*
X129145238Y-66774819D01*
X129145238Y-66774819D02*
X128907143Y-66774819D01*
X128907143Y-66774819D02*
X128811905Y-66727200D01*
X128811905Y-66727200D02*
X128764286Y-66679580D01*
X109833333Y-72859580D02*
X109785714Y-72907200D01*
X109785714Y-72907200D02*
X109642857Y-72954819D01*
X109642857Y-72954819D02*
X109547619Y-72954819D01*
X109547619Y-72954819D02*
X109404762Y-72907200D01*
X109404762Y-72907200D02*
X109309524Y-72811961D01*
X109309524Y-72811961D02*
X109261905Y-72716723D01*
X109261905Y-72716723D02*
X109214286Y-72526247D01*
X109214286Y-72526247D02*
X109214286Y-72383390D01*
X109214286Y-72383390D02*
X109261905Y-72192914D01*
X109261905Y-72192914D02*
X109309524Y-72097676D01*
X109309524Y-72097676D02*
X109404762Y-72002438D01*
X109404762Y-72002438D02*
X109547619Y-71954819D01*
X109547619Y-71954819D02*
X109642857Y-71954819D01*
X109642857Y-71954819D02*
X109785714Y-72002438D01*
X109785714Y-72002438D02*
X109833333Y-72050057D01*
X110690476Y-72288152D02*
X110690476Y-72954819D01*
X110452381Y-71907200D02*
X110214286Y-72621485D01*
X110214286Y-72621485D02*
X110833333Y-72621485D01*
X120333333Y-58179580D02*
X120285714Y-58227200D01*
X120285714Y-58227200D02*
X120142857Y-58274819D01*
X120142857Y-58274819D02*
X120047619Y-58274819D01*
X120047619Y-58274819D02*
X119904762Y-58227200D01*
X119904762Y-58227200D02*
X119809524Y-58131961D01*
X119809524Y-58131961D02*
X119761905Y-58036723D01*
X119761905Y-58036723D02*
X119714286Y-57846247D01*
X119714286Y-57846247D02*
X119714286Y-57703390D01*
X119714286Y-57703390D02*
X119761905Y-57512914D01*
X119761905Y-57512914D02*
X119809524Y-57417676D01*
X119809524Y-57417676D02*
X119904762Y-57322438D01*
X119904762Y-57322438D02*
X120047619Y-57274819D01*
X120047619Y-57274819D02*
X120142857Y-57274819D01*
X120142857Y-57274819D02*
X120285714Y-57322438D01*
X120285714Y-57322438D02*
X120333333Y-57370057D01*
X121285714Y-58274819D02*
X120714286Y-58274819D01*
X121000000Y-58274819D02*
X121000000Y-57274819D01*
X121000000Y-57274819D02*
X120904762Y-57417676D01*
X120904762Y-57417676D02*
X120809524Y-57512914D01*
X120809524Y-57512914D02*
X120714286Y-57560533D01*
X120333333Y-62054819D02*
X120000000Y-61578628D01*
X119761905Y-62054819D02*
X119761905Y-61054819D01*
X119761905Y-61054819D02*
X120142857Y-61054819D01*
X120142857Y-61054819D02*
X120238095Y-61102438D01*
X120238095Y-61102438D02*
X120285714Y-61150057D01*
X120285714Y-61150057D02*
X120333333Y-61245295D01*
X120333333Y-61245295D02*
X120333333Y-61388152D01*
X120333333Y-61388152D02*
X120285714Y-61483390D01*
X120285714Y-61483390D02*
X120238095Y-61531009D01*
X120238095Y-61531009D02*
X120142857Y-61578628D01*
X120142857Y-61578628D02*
X119761905Y-61578628D01*
X121238095Y-61054819D02*
X120761905Y-61054819D01*
X120761905Y-61054819D02*
X120714286Y-61531009D01*
X120714286Y-61531009D02*
X120761905Y-61483390D01*
X120761905Y-61483390D02*
X120857143Y-61435771D01*
X120857143Y-61435771D02*
X121095238Y-61435771D01*
X121095238Y-61435771D02*
X121190476Y-61483390D01*
X121190476Y-61483390D02*
X121238095Y-61531009D01*
X121238095Y-61531009D02*
X121285714Y-61626247D01*
X121285714Y-61626247D02*
X121285714Y-61864342D01*
X121285714Y-61864342D02*
X121238095Y-61959580D01*
X121238095Y-61959580D02*
X121190476Y-62007200D01*
X121190476Y-62007200D02*
X121095238Y-62054819D01*
X121095238Y-62054819D02*
X120857143Y-62054819D01*
X120857143Y-62054819D02*
X120761905Y-62007200D01*
X120761905Y-62007200D02*
X120714286Y-61959580D01*
X109833333Y-63609580D02*
X109785714Y-63657200D01*
X109785714Y-63657200D02*
X109642857Y-63704819D01*
X109642857Y-63704819D02*
X109547619Y-63704819D01*
X109547619Y-63704819D02*
X109404762Y-63657200D01*
X109404762Y-63657200D02*
X109309524Y-63561961D01*
X109309524Y-63561961D02*
X109261905Y-63466723D01*
X109261905Y-63466723D02*
X109214286Y-63276247D01*
X109214286Y-63276247D02*
X109214286Y-63133390D01*
X109214286Y-63133390D02*
X109261905Y-62942914D01*
X109261905Y-62942914D02*
X109309524Y-62847676D01*
X109309524Y-62847676D02*
X109404762Y-62752438D01*
X109404762Y-62752438D02*
X109547619Y-62704819D01*
X109547619Y-62704819D02*
X109642857Y-62704819D01*
X109642857Y-62704819D02*
X109785714Y-62752438D01*
X109785714Y-62752438D02*
X109833333Y-62800057D01*
X110166667Y-62704819D02*
X110785714Y-62704819D01*
X110785714Y-62704819D02*
X110452381Y-63085771D01*
X110452381Y-63085771D02*
X110595238Y-63085771D01*
X110595238Y-63085771D02*
X110690476Y-63133390D01*
X110690476Y-63133390D02*
X110738095Y-63181009D01*
X110738095Y-63181009D02*
X110785714Y-63276247D01*
X110785714Y-63276247D02*
X110785714Y-63514342D01*
X110785714Y-63514342D02*
X110738095Y-63609580D01*
X110738095Y-63609580D02*
X110690476Y-63657200D01*
X110690476Y-63657200D02*
X110595238Y-63704819D01*
X110595238Y-63704819D02*
X110309524Y-63704819D01*
X110309524Y-63704819D02*
X110214286Y-63657200D01*
X110214286Y-63657200D02*
X110166667Y-63609580D01*
X128833333Y-79304819D02*
X128500000Y-78828628D01*
X128261905Y-79304819D02*
X128261905Y-78304819D01*
X128261905Y-78304819D02*
X128642857Y-78304819D01*
X128642857Y-78304819D02*
X128738095Y-78352438D01*
X128738095Y-78352438D02*
X128785714Y-78400057D01*
X128785714Y-78400057D02*
X128833333Y-78495295D01*
X128833333Y-78495295D02*
X128833333Y-78638152D01*
X128833333Y-78638152D02*
X128785714Y-78733390D01*
X128785714Y-78733390D02*
X128738095Y-78781009D01*
X128738095Y-78781009D02*
X128642857Y-78828628D01*
X128642857Y-78828628D02*
X128261905Y-78828628D01*
X129785714Y-79304819D02*
X129214286Y-79304819D01*
X129500000Y-79304819D02*
X129500000Y-78304819D01*
X129500000Y-78304819D02*
X129404762Y-78447676D01*
X129404762Y-78447676D02*
X129309524Y-78542914D01*
X129309524Y-78542914D02*
X129214286Y-78590533D01*
X106166667Y-86657200D02*
X106309524Y-86704819D01*
X106309524Y-86704819D02*
X106547619Y-86704819D01*
X106547619Y-86704819D02*
X106642857Y-86657200D01*
X106642857Y-86657200D02*
X106690476Y-86609580D01*
X106690476Y-86609580D02*
X106738095Y-86514342D01*
X106738095Y-86514342D02*
X106738095Y-86419104D01*
X106738095Y-86419104D02*
X106690476Y-86323866D01*
X106690476Y-86323866D02*
X106642857Y-86276247D01*
X106642857Y-86276247D02*
X106547619Y-86228628D01*
X106547619Y-86228628D02*
X106357143Y-86181009D01*
X106357143Y-86181009D02*
X106261905Y-86133390D01*
X106261905Y-86133390D02*
X106214286Y-86085771D01*
X106214286Y-86085771D02*
X106166667Y-85990533D01*
X106166667Y-85990533D02*
X106166667Y-85895295D01*
X106166667Y-85895295D02*
X106214286Y-85800057D01*
X106214286Y-85800057D02*
X106261905Y-85752438D01*
X106261905Y-85752438D02*
X106357143Y-85704819D01*
X106357143Y-85704819D02*
X106595238Y-85704819D01*
X106595238Y-85704819D02*
X106738095Y-85752438D01*
X107071429Y-85704819D02*
X107309524Y-86704819D01*
X107309524Y-86704819D02*
X107500000Y-85990533D01*
X107500000Y-85990533D02*
X107690476Y-86704819D01*
X107690476Y-86704819D02*
X107928572Y-85704819D01*
X108261905Y-85800057D02*
X108309524Y-85752438D01*
X108309524Y-85752438D02*
X108404762Y-85704819D01*
X108404762Y-85704819D02*
X108642857Y-85704819D01*
X108642857Y-85704819D02*
X108738095Y-85752438D01*
X108738095Y-85752438D02*
X108785714Y-85800057D01*
X108785714Y-85800057D02*
X108833333Y-85895295D01*
X108833333Y-85895295D02*
X108833333Y-85990533D01*
X108833333Y-85990533D02*
X108785714Y-86133390D01*
X108785714Y-86133390D02*
X108214286Y-86704819D01*
X108214286Y-86704819D02*
X108833333Y-86704819D01*
D10*
%TO.C,Q1*%
X107762500Y-59870000D02*
X108002500Y-60200000D01*
X107522500Y-60200000D01*
X107762500Y-59870000D01*
G36*
X108002500Y-60200000D02*
G01*
X107522500Y-60200000D01*
X107762500Y-59870000D01*
X108002500Y-60200000D01*
G37*
X109822500Y-61810000D02*
X108302500Y-61810000D01*
X109822500Y-60810000D02*
X109822500Y-61810000D01*
X109822500Y-58690000D02*
X109822500Y-59690000D01*
X108302500Y-61810000D02*
X108302500Y-61760000D01*
X108302500Y-60640000D02*
X108302500Y-59860000D01*
X108302500Y-58740000D02*
X108302500Y-58690000D01*
X108302500Y-58690000D02*
X109822500Y-58690000D01*
%TO.C,R6*%
X128360436Y-70765000D02*
X128814564Y-70765000D01*
X128360436Y-72235000D02*
X128814564Y-72235000D01*
%TO.C,R7*%
X107110436Y-76515000D02*
X107564564Y-76515000D01*
X107110436Y-77985000D02*
X107564564Y-77985000D01*
%TO.C,D1*%
X124990000Y-75000000D02*
X124990000Y-77000000D01*
X124990000Y-75000000D02*
X129000000Y-75000000D01*
X124990000Y-77000000D02*
X129000000Y-77000000D01*
%TO.C,D2*%
X105627500Y-79790000D02*
X105627500Y-81710000D01*
X105627500Y-81710000D02*
X108312500Y-81710000D01*
X108312500Y-79790000D02*
X105627500Y-79790000D01*
%TO.C,C6*%
X123788748Y-67265000D02*
X124311252Y-67265000D01*
X123788748Y-68735000D02*
X124311252Y-68735000D01*
%TO.C,R2*%
X124360436Y-79765000D02*
X124814564Y-79765000D01*
X124360436Y-81235000D02*
X124814564Y-81235000D01*
%TO.C,U3*%
X112495000Y-74465000D02*
X112550000Y-74465000D01*
X112495000Y-78585000D02*
X112495000Y-74465000D01*
X112550000Y-78585000D02*
X112495000Y-78585000D01*
X122560000Y-74465000D02*
X122615000Y-74465000D01*
X122615000Y-74465000D02*
X122615000Y-78585000D01*
X122615000Y-78585000D02*
X122560000Y-78585000D01*
X112545000Y-79125000D02*
X112215000Y-79365000D01*
X112215000Y-78885000D01*
X112545000Y-79125000D01*
G36*
X112545000Y-79125000D02*
G01*
X112215000Y-79365000D01*
X112215000Y-78885000D01*
X112545000Y-79125000D01*
G37*
%TO.C,J1*%
X112180000Y-84480000D02*
X112180000Y-81750000D01*
X112180000Y-88080000D02*
X112180000Y-87180000D01*
X121250000Y-91160000D02*
X112300000Y-91160000D01*
X121370000Y-81750000D02*
X112180000Y-81750000D01*
X121370000Y-84480000D02*
X121370000Y-81750000D01*
X121370000Y-88080000D02*
X121370000Y-87180000D01*
%TO.C,Q2*%
X115052500Y-58490000D02*
X116572500Y-58490000D01*
X115052500Y-59490000D02*
X115052500Y-58490000D01*
X115052500Y-61610000D02*
X115052500Y-60610000D01*
X116572500Y-58490000D02*
X116572500Y-58540000D01*
X116572500Y-59660000D02*
X116572500Y-60440000D01*
X116572500Y-61560000D02*
X116572500Y-61610000D01*
X116572500Y-61610000D02*
X115052500Y-61610000D01*
X117112500Y-60430000D02*
X116872500Y-60100000D01*
X117352500Y-60100000D01*
X117112500Y-60430000D01*
G36*
X117112500Y-60430000D02*
G01*
X116872500Y-60100000D01*
X117352500Y-60100000D01*
X117112500Y-60430000D01*
G37*
%TO.C,R3*%
X124860436Y-58765000D02*
X125314564Y-58765000D01*
X124860436Y-60235000D02*
X125314564Y-60235000D01*
%TO.C,C2*%
X124488748Y-62265000D02*
X125011252Y-62265000D01*
X124488748Y-63735000D02*
X125011252Y-63735000D01*
%TO.C,R4*%
X112272936Y-61515000D02*
X112727064Y-61515000D01*
X112272936Y-62985000D02*
X112727064Y-62985000D01*
%TO.C,U2*%
X115150000Y-64590000D02*
X118910000Y-64590000D01*
X115150000Y-71410000D02*
X118910000Y-71410000D01*
X118910000Y-64590000D02*
X118910000Y-65850000D01*
X118910000Y-71410000D02*
X118910000Y-70150000D01*
X113870000Y-64690000D02*
X113630000Y-64360000D01*
X114110000Y-64360000D01*
X113870000Y-64690000D01*
G36*
X113870000Y-64690000D02*
G01*
X113630000Y-64360000D01*
X114110000Y-64360000D01*
X113870000Y-64690000D01*
G37*
%TO.C,U1*%
X108050000Y-56590000D02*
X108050000Y-55640000D01*
X109450000Y-56590000D02*
X108050000Y-56590000D01*
X125050000Y-56590000D02*
X126450000Y-56590000D01*
X126450000Y-56590000D02*
X126450000Y-55640000D01*
X108050000Y-37640000D02*
X107550000Y-37640000D01*
X108050000Y-37140000D01*
X108050000Y-37640000D01*
G36*
X108050000Y-37640000D02*
G01*
X107550000Y-37640000D01*
X108050000Y-37140000D01*
X108050000Y-37640000D01*
G37*
%TO.C,SW1*%
X123250000Y-88250000D02*
X123250000Y-85750000D01*
X123700000Y-85300000D02*
X123250000Y-85750000D01*
X123700000Y-88700000D02*
X123250000Y-88250000D01*
X125000000Y-84250000D02*
X127000000Y-84250000D01*
X125000000Y-89750000D02*
X127000000Y-89750000D01*
X128300000Y-85300000D02*
X128750000Y-85750000D01*
X128300000Y-88700000D02*
X128750000Y-88250000D01*
X128750000Y-88250000D02*
X128750000Y-85750000D01*
%TO.C,C5*%
X128288748Y-67265000D02*
X128811252Y-67265000D01*
X128288748Y-68735000D02*
X128811252Y-68735000D01*
%TO.C,C4*%
X109265000Y-69788748D02*
X109265000Y-70311252D01*
X110735000Y-69788748D02*
X110735000Y-70311252D01*
%TO.C,C1*%
X120238748Y-58765000D02*
X120761252Y-58765000D01*
X120238748Y-60235000D02*
X120761252Y-60235000D01*
%TO.C,R5*%
X120272936Y-62515000D02*
X120727064Y-62515000D01*
X120272936Y-63985000D02*
X120727064Y-63985000D01*
%TO.C,C3*%
X109265000Y-65788748D02*
X109265000Y-66311252D01*
X110735000Y-65788748D02*
X110735000Y-66311252D01*
%TO.C,R1*%
X128772936Y-79765000D02*
X129227064Y-79765000D01*
X128772936Y-81235000D02*
X129227064Y-81235000D01*
%TO.C,SW2*%
X104750000Y-87750000D02*
X104750000Y-85250000D01*
X105200000Y-84800000D02*
X104750000Y-85250000D01*
X105200000Y-88200000D02*
X104750000Y-87750000D01*
X106500000Y-83750000D02*
X108500000Y-83750000D01*
X106500000Y-89250000D02*
X108500000Y-89250000D01*
X109800000Y-84800000D02*
X110250000Y-85250000D01*
X109800000Y-88200000D02*
X110250000Y-87750000D01*
X110250000Y-87750000D02*
X110250000Y-85250000D01*
%TD*%
M02*
