%TF.GenerationSoftware,KiCad,Pcbnew,10.0.4*%
%TF.CreationDate,2026-07-16T15:51:38-05:00*%
%TF.ProjectId,NEXUS-ESP32-DevKit,4e455855-532d-4455-9350-33322d446576,rev?*%
%TF.SameCoordinates,Original*%
%TF.FileFunction,Legend,Bot*%
%TF.FilePolarity,Positive*%
%FSLAX46Y46*%
G04 Gerber Fmt 4.6, Leading zero omitted, Abs format (unit mm)*
G04 Created by KiCad (PCBNEW 10.0.4) date 2026-07-16 15:51:38*
%MOMM*%
%LPD*%
G01*
G04 APERTURE LIST*
%ADD10C,0.100000*%
%ADD11C,0.150000*%
%ADD12C,0.120000*%
G04 APERTURE END LIST*
D10*
X127125639Y-62122419D02*
X127030401Y-62122419D01*
X127030401Y-62122419D02*
X126935163Y-62170038D01*
X126935163Y-62170038D02*
X126887544Y-62217657D01*
X126887544Y-62217657D02*
X126839925Y-62312895D01*
X126839925Y-62312895D02*
X126792306Y-62503371D01*
X126792306Y-62503371D02*
X126792306Y-62741466D01*
X126792306Y-62741466D02*
X126839925Y-62931942D01*
X126839925Y-62931942D02*
X126887544Y-63027180D01*
X126887544Y-63027180D02*
X126935163Y-63074800D01*
X126935163Y-63074800D02*
X127030401Y-63122419D01*
X127030401Y-63122419D02*
X127125639Y-63122419D01*
X127125639Y-63122419D02*
X127220877Y-63074800D01*
X127220877Y-63074800D02*
X127268496Y-63027180D01*
X127268496Y-63027180D02*
X127316115Y-62931942D01*
X127316115Y-62931942D02*
X127363734Y-62741466D01*
X127363734Y-62741466D02*
X127363734Y-62503371D01*
X127363734Y-62503371D02*
X127316115Y-62312895D01*
X127316115Y-62312895D02*
X127268496Y-62217657D01*
X127268496Y-62217657D02*
X127220877Y-62170038D01*
X127220877Y-62170038D02*
X127125639Y-62122419D01*
X125935163Y-62455752D02*
X125935163Y-63122419D01*
X126173258Y-62074800D02*
X126411353Y-62789085D01*
X126411353Y-62789085D02*
X125792306Y-62789085D01*
X126672306Y-60372419D02*
X127243734Y-60372419D01*
X126958020Y-60372419D02*
X126958020Y-59372419D01*
X126958020Y-59372419D02*
X127053258Y-59515276D01*
X127053258Y-59515276D02*
X127148496Y-59610514D01*
X127148496Y-59610514D02*
X127243734Y-59658133D01*
X125815163Y-59372419D02*
X126005639Y-59372419D01*
X126005639Y-59372419D02*
X126100877Y-59420038D01*
X126100877Y-59420038D02*
X126148496Y-59467657D01*
X126148496Y-59467657D02*
X126243734Y-59610514D01*
X126243734Y-59610514D02*
X126291353Y-59800990D01*
X126291353Y-59800990D02*
X126291353Y-60181942D01*
X126291353Y-60181942D02*
X126243734Y-60277180D01*
X126243734Y-60277180D02*
X126196115Y-60324800D01*
X126196115Y-60324800D02*
X126100877Y-60372419D01*
X126100877Y-60372419D02*
X125910401Y-60372419D01*
X125910401Y-60372419D02*
X125815163Y-60324800D01*
X125815163Y-60324800D02*
X125767544Y-60277180D01*
X125767544Y-60277180D02*
X125719925Y-60181942D01*
X125719925Y-60181942D02*
X125719925Y-59943847D01*
X125719925Y-59943847D02*
X125767544Y-59848609D01*
X125767544Y-59848609D02*
X125815163Y-59800990D01*
X125815163Y-59800990D02*
X125910401Y-59753371D01*
X125910401Y-59753371D02*
X126100877Y-59753371D01*
X126100877Y-59753371D02*
X126196115Y-59800990D01*
X126196115Y-59800990D02*
X126243734Y-59848609D01*
X126243734Y-59848609D02*
X126291353Y-59943847D01*
X126672306Y-57872419D02*
X127243734Y-57872419D01*
X126958020Y-57872419D02*
X126958020Y-56872419D01*
X126958020Y-56872419D02*
X127053258Y-57015276D01*
X127053258Y-57015276D02*
X127148496Y-57110514D01*
X127148496Y-57110514D02*
X127243734Y-57158133D01*
X126338972Y-56872419D02*
X125672306Y-56872419D01*
X125672306Y-56872419D02*
X126100877Y-57872419D01*
X127005639Y-54372419D02*
X126910401Y-54372419D01*
X126910401Y-54372419D02*
X126815163Y-54420038D01*
X126815163Y-54420038D02*
X126767544Y-54467657D01*
X126767544Y-54467657D02*
X126719925Y-54562895D01*
X126719925Y-54562895D02*
X126672306Y-54753371D01*
X126672306Y-54753371D02*
X126672306Y-54991466D01*
X126672306Y-54991466D02*
X126719925Y-55181942D01*
X126719925Y-55181942D02*
X126767544Y-55277180D01*
X126767544Y-55277180D02*
X126815163Y-55324800D01*
X126815163Y-55324800D02*
X126910401Y-55372419D01*
X126910401Y-55372419D02*
X127005639Y-55372419D01*
X127005639Y-55372419D02*
X127100877Y-55324800D01*
X127100877Y-55324800D02*
X127148496Y-55277180D01*
X127148496Y-55277180D02*
X127196115Y-55181942D01*
X127196115Y-55181942D02*
X127243734Y-54991466D01*
X127243734Y-54991466D02*
X127243734Y-54753371D01*
X127243734Y-54753371D02*
X127196115Y-54562895D01*
X127196115Y-54562895D02*
X127148496Y-54467657D01*
X127148496Y-54467657D02*
X127100877Y-54420038D01*
X127100877Y-54420038D02*
X127005639Y-54372419D01*
X125767544Y-54372419D02*
X126243734Y-54372419D01*
X126243734Y-54372419D02*
X126291353Y-54848609D01*
X126291353Y-54848609D02*
X126243734Y-54800990D01*
X126243734Y-54800990D02*
X126148496Y-54753371D01*
X126148496Y-54753371D02*
X125910401Y-54753371D01*
X125910401Y-54753371D02*
X125815163Y-54800990D01*
X125815163Y-54800990D02*
X125767544Y-54848609D01*
X125767544Y-54848609D02*
X125719925Y-54943847D01*
X125719925Y-54943847D02*
X125719925Y-55181942D01*
X125719925Y-55181942D02*
X125767544Y-55277180D01*
X125767544Y-55277180D02*
X125815163Y-55324800D01*
X125815163Y-55324800D02*
X125910401Y-55372419D01*
X125910401Y-55372419D02*
X126148496Y-55372419D01*
X126148496Y-55372419D02*
X126243734Y-55324800D01*
X126243734Y-55324800D02*
X126291353Y-55277180D01*
X126672306Y-52622419D02*
X127243734Y-52622419D01*
X126958020Y-52622419D02*
X126958020Y-51622419D01*
X126958020Y-51622419D02*
X127053258Y-51765276D01*
X127053258Y-51765276D02*
X127148496Y-51860514D01*
X127148496Y-51860514D02*
X127243734Y-51908133D01*
X126100877Y-52050990D02*
X126196115Y-52003371D01*
X126196115Y-52003371D02*
X126243734Y-51955752D01*
X126243734Y-51955752D02*
X126291353Y-51860514D01*
X126291353Y-51860514D02*
X126291353Y-51812895D01*
X126291353Y-51812895D02*
X126243734Y-51717657D01*
X126243734Y-51717657D02*
X126196115Y-51670038D01*
X126196115Y-51670038D02*
X126100877Y-51622419D01*
X126100877Y-51622419D02*
X125910401Y-51622419D01*
X125910401Y-51622419D02*
X125815163Y-51670038D01*
X125815163Y-51670038D02*
X125767544Y-51717657D01*
X125767544Y-51717657D02*
X125719925Y-51812895D01*
X125719925Y-51812895D02*
X125719925Y-51860514D01*
X125719925Y-51860514D02*
X125767544Y-51955752D01*
X125767544Y-51955752D02*
X125815163Y-52003371D01*
X125815163Y-52003371D02*
X125910401Y-52050990D01*
X125910401Y-52050990D02*
X126100877Y-52050990D01*
X126100877Y-52050990D02*
X126196115Y-52098609D01*
X126196115Y-52098609D02*
X126243734Y-52146228D01*
X126243734Y-52146228D02*
X126291353Y-52241466D01*
X126291353Y-52241466D02*
X126291353Y-52431942D01*
X126291353Y-52431942D02*
X126243734Y-52527180D01*
X126243734Y-52527180D02*
X126196115Y-52574800D01*
X126196115Y-52574800D02*
X126100877Y-52622419D01*
X126100877Y-52622419D02*
X125910401Y-52622419D01*
X125910401Y-52622419D02*
X125815163Y-52574800D01*
X125815163Y-52574800D02*
X125767544Y-52527180D01*
X125767544Y-52527180D02*
X125719925Y-52431942D01*
X125719925Y-52431942D02*
X125719925Y-52241466D01*
X125719925Y-52241466D02*
X125767544Y-52146228D01*
X125767544Y-52146228D02*
X125815163Y-52098609D01*
X125815163Y-52098609D02*
X125910401Y-52050990D01*
X126792306Y-50372419D02*
X127363734Y-50372419D01*
X127078020Y-50372419D02*
X127078020Y-49372419D01*
X127078020Y-49372419D02*
X127173258Y-49515276D01*
X127173258Y-49515276D02*
X127268496Y-49610514D01*
X127268496Y-49610514D02*
X127363734Y-49658133D01*
X126316115Y-50372419D02*
X126125639Y-50372419D01*
X126125639Y-50372419D02*
X126030401Y-50324800D01*
X126030401Y-50324800D02*
X125982782Y-50277180D01*
X125982782Y-50277180D02*
X125887544Y-50134323D01*
X125887544Y-50134323D02*
X125839925Y-49943847D01*
X125839925Y-49943847D02*
X125839925Y-49562895D01*
X125839925Y-49562895D02*
X125887544Y-49467657D01*
X125887544Y-49467657D02*
X125935163Y-49420038D01*
X125935163Y-49420038D02*
X126030401Y-49372419D01*
X126030401Y-49372419D02*
X126220877Y-49372419D01*
X126220877Y-49372419D02*
X126316115Y-49420038D01*
X126316115Y-49420038D02*
X126363734Y-49467657D01*
X126363734Y-49467657D02*
X126411353Y-49562895D01*
X126411353Y-49562895D02*
X126411353Y-49800990D01*
X126411353Y-49800990D02*
X126363734Y-49896228D01*
X126363734Y-49896228D02*
X126316115Y-49943847D01*
X126316115Y-49943847D02*
X126220877Y-49991466D01*
X126220877Y-49991466D02*
X126030401Y-49991466D01*
X126030401Y-49991466D02*
X125935163Y-49943847D01*
X125935163Y-49943847D02*
X125887544Y-49896228D01*
X125887544Y-49896228D02*
X125839925Y-49800990D01*
X127363734Y-46717657D02*
X127316115Y-46670038D01*
X127316115Y-46670038D02*
X127220877Y-46622419D01*
X127220877Y-46622419D02*
X126982782Y-46622419D01*
X126982782Y-46622419D02*
X126887544Y-46670038D01*
X126887544Y-46670038D02*
X126839925Y-46717657D01*
X126839925Y-46717657D02*
X126792306Y-46812895D01*
X126792306Y-46812895D02*
X126792306Y-46908133D01*
X126792306Y-46908133D02*
X126839925Y-47050990D01*
X126839925Y-47050990D02*
X127411353Y-47622419D01*
X127411353Y-47622419D02*
X126792306Y-47622419D01*
X125839925Y-47622419D02*
X126411353Y-47622419D01*
X126125639Y-47622419D02*
X126125639Y-46622419D01*
X126125639Y-46622419D02*
X126220877Y-46765276D01*
X126220877Y-46765276D02*
X126316115Y-46860514D01*
X126316115Y-46860514D02*
X126411353Y-46908133D01*
X127363734Y-44217657D02*
X127316115Y-44170038D01*
X127316115Y-44170038D02*
X127220877Y-44122419D01*
X127220877Y-44122419D02*
X126982782Y-44122419D01*
X126982782Y-44122419D02*
X126887544Y-44170038D01*
X126887544Y-44170038D02*
X126839925Y-44217657D01*
X126839925Y-44217657D02*
X126792306Y-44312895D01*
X126792306Y-44312895D02*
X126792306Y-44408133D01*
X126792306Y-44408133D02*
X126839925Y-44550990D01*
X126839925Y-44550990D02*
X127411353Y-45122419D01*
X127411353Y-45122419D02*
X126792306Y-45122419D01*
X126411353Y-44217657D02*
X126363734Y-44170038D01*
X126363734Y-44170038D02*
X126268496Y-44122419D01*
X126268496Y-44122419D02*
X126030401Y-44122419D01*
X126030401Y-44122419D02*
X125935163Y-44170038D01*
X125935163Y-44170038D02*
X125887544Y-44217657D01*
X125887544Y-44217657D02*
X125839925Y-44312895D01*
X125839925Y-44312895D02*
X125839925Y-44408133D01*
X125839925Y-44408133D02*
X125887544Y-44550990D01*
X125887544Y-44550990D02*
X126458972Y-45122419D01*
X126458972Y-45122419D02*
X125839925Y-45122419D01*
X127363734Y-41717657D02*
X127316115Y-41670038D01*
X127316115Y-41670038D02*
X127220877Y-41622419D01*
X127220877Y-41622419D02*
X126982782Y-41622419D01*
X126982782Y-41622419D02*
X126887544Y-41670038D01*
X126887544Y-41670038D02*
X126839925Y-41717657D01*
X126839925Y-41717657D02*
X126792306Y-41812895D01*
X126792306Y-41812895D02*
X126792306Y-41908133D01*
X126792306Y-41908133D02*
X126839925Y-42050990D01*
X126839925Y-42050990D02*
X127411353Y-42622419D01*
X127411353Y-42622419D02*
X126792306Y-42622419D01*
X126458972Y-41622419D02*
X125839925Y-41622419D01*
X125839925Y-41622419D02*
X126173258Y-42003371D01*
X126173258Y-42003371D02*
X126030401Y-42003371D01*
X126030401Y-42003371D02*
X125935163Y-42050990D01*
X125935163Y-42050990D02*
X125887544Y-42098609D01*
X125887544Y-42098609D02*
X125839925Y-42193847D01*
X125839925Y-42193847D02*
X125839925Y-42431942D01*
X125839925Y-42431942D02*
X125887544Y-42527180D01*
X125887544Y-42527180D02*
X125935163Y-42574800D01*
X125935163Y-42574800D02*
X126030401Y-42622419D01*
X126030401Y-42622419D02*
X126316115Y-42622419D01*
X126316115Y-42622419D02*
X126411353Y-42574800D01*
X126411353Y-42574800D02*
X126458972Y-42527180D01*
X126792306Y-39170038D02*
X126887544Y-39122419D01*
X126887544Y-39122419D02*
X127030401Y-39122419D01*
X127030401Y-39122419D02*
X127173258Y-39170038D01*
X127173258Y-39170038D02*
X127268496Y-39265276D01*
X127268496Y-39265276D02*
X127316115Y-39360514D01*
X127316115Y-39360514D02*
X127363734Y-39550990D01*
X127363734Y-39550990D02*
X127363734Y-39693847D01*
X127363734Y-39693847D02*
X127316115Y-39884323D01*
X127316115Y-39884323D02*
X127268496Y-39979561D01*
X127268496Y-39979561D02*
X127173258Y-40074800D01*
X127173258Y-40074800D02*
X127030401Y-40122419D01*
X127030401Y-40122419D02*
X126935163Y-40122419D01*
X126935163Y-40122419D02*
X126792306Y-40074800D01*
X126792306Y-40074800D02*
X126744687Y-40027180D01*
X126744687Y-40027180D02*
X126744687Y-39693847D01*
X126744687Y-39693847D02*
X126935163Y-39693847D01*
X126316115Y-40122419D02*
X126316115Y-39122419D01*
X126316115Y-39122419D02*
X125744687Y-40122419D01*
X125744687Y-40122419D02*
X125744687Y-39122419D01*
X125268496Y-40122419D02*
X125268496Y-39122419D01*
X125268496Y-39122419D02*
X125030401Y-39122419D01*
X125030401Y-39122419D02*
X124887544Y-39170038D01*
X124887544Y-39170038D02*
X124792306Y-39265276D01*
X124792306Y-39265276D02*
X124744687Y-39360514D01*
X124744687Y-39360514D02*
X124697068Y-39550990D01*
X124697068Y-39550990D02*
X124697068Y-39693847D01*
X124697068Y-39693847D02*
X124744687Y-39884323D01*
X124744687Y-39884323D02*
X124792306Y-39979561D01*
X124792306Y-39979561D02*
X124887544Y-40074800D01*
X124887544Y-40074800D02*
X125030401Y-40122419D01*
X125030401Y-40122419D02*
X125268496Y-40122419D01*
X108922306Y-71920038D02*
X109017544Y-71872419D01*
X109017544Y-71872419D02*
X109160401Y-71872419D01*
X109160401Y-71872419D02*
X109303258Y-71920038D01*
X109303258Y-71920038D02*
X109398496Y-72015276D01*
X109398496Y-72015276D02*
X109446115Y-72110514D01*
X109446115Y-72110514D02*
X109493734Y-72300990D01*
X109493734Y-72300990D02*
X109493734Y-72443847D01*
X109493734Y-72443847D02*
X109446115Y-72634323D01*
X109446115Y-72634323D02*
X109398496Y-72729561D01*
X109398496Y-72729561D02*
X109303258Y-72824800D01*
X109303258Y-72824800D02*
X109160401Y-72872419D01*
X109160401Y-72872419D02*
X109065163Y-72872419D01*
X109065163Y-72872419D02*
X108922306Y-72824800D01*
X108922306Y-72824800D02*
X108874687Y-72777180D01*
X108874687Y-72777180D02*
X108874687Y-72443847D01*
X108874687Y-72443847D02*
X109065163Y-72443847D01*
X108446115Y-72872419D02*
X108446115Y-71872419D01*
X108446115Y-71872419D02*
X107874687Y-72872419D01*
X107874687Y-72872419D02*
X107874687Y-71872419D01*
X107398496Y-72872419D02*
X107398496Y-71872419D01*
X107398496Y-71872419D02*
X107160401Y-71872419D01*
X107160401Y-71872419D02*
X107017544Y-71920038D01*
X107017544Y-71920038D02*
X106922306Y-72015276D01*
X106922306Y-72015276D02*
X106874687Y-72110514D01*
X106874687Y-72110514D02*
X106827068Y-72300990D01*
X106827068Y-72300990D02*
X106827068Y-72443847D01*
X106827068Y-72443847D02*
X106874687Y-72634323D01*
X106874687Y-72634323D02*
X106922306Y-72729561D01*
X106922306Y-72729561D02*
X107017544Y-72824800D01*
X107017544Y-72824800D02*
X107160401Y-72872419D01*
X107160401Y-72872419D02*
X107398496Y-72872419D01*
X107922306Y-70372419D02*
X108493734Y-70372419D01*
X108208020Y-70372419D02*
X108208020Y-69372419D01*
X108208020Y-69372419D02*
X108303258Y-69515276D01*
X108303258Y-69515276D02*
X108398496Y-69610514D01*
X108398496Y-69610514D02*
X108493734Y-69658133D01*
X107588972Y-69372419D02*
X106969925Y-69372419D01*
X106969925Y-69372419D02*
X107303258Y-69753371D01*
X107303258Y-69753371D02*
X107160401Y-69753371D01*
X107160401Y-69753371D02*
X107065163Y-69800990D01*
X107065163Y-69800990D02*
X107017544Y-69848609D01*
X107017544Y-69848609D02*
X106969925Y-69943847D01*
X106969925Y-69943847D02*
X106969925Y-70181942D01*
X106969925Y-70181942D02*
X107017544Y-70277180D01*
X107017544Y-70277180D02*
X107065163Y-70324800D01*
X107065163Y-70324800D02*
X107160401Y-70372419D01*
X107160401Y-70372419D02*
X107446115Y-70372419D01*
X107446115Y-70372419D02*
X107541353Y-70324800D01*
X107541353Y-70324800D02*
X107588972Y-70277180D01*
X107922306Y-67622419D02*
X108493734Y-67622419D01*
X108208020Y-67622419D02*
X108208020Y-66622419D01*
X108208020Y-66622419D02*
X108303258Y-66765276D01*
X108303258Y-66765276D02*
X108398496Y-66860514D01*
X108398496Y-66860514D02*
X108493734Y-66908133D01*
X107065163Y-66955752D02*
X107065163Y-67622419D01*
X107303258Y-66574800D02*
X107541353Y-67289085D01*
X107541353Y-67289085D02*
X106922306Y-67289085D01*
X108493734Y-64217657D02*
X108446115Y-64170038D01*
X108446115Y-64170038D02*
X108350877Y-64122419D01*
X108350877Y-64122419D02*
X108112782Y-64122419D01*
X108112782Y-64122419D02*
X108017544Y-64170038D01*
X108017544Y-64170038D02*
X107969925Y-64217657D01*
X107969925Y-64217657D02*
X107922306Y-64312895D01*
X107922306Y-64312895D02*
X107922306Y-64408133D01*
X107922306Y-64408133D02*
X107969925Y-64550990D01*
X107969925Y-64550990D02*
X108541353Y-65122419D01*
X108541353Y-65122419D02*
X107922306Y-65122419D01*
X107588972Y-64122419D02*
X106922306Y-64122419D01*
X106922306Y-64122419D02*
X107350877Y-65122419D01*
X108493734Y-61717657D02*
X108446115Y-61670038D01*
X108446115Y-61670038D02*
X108350877Y-61622419D01*
X108350877Y-61622419D02*
X108112782Y-61622419D01*
X108112782Y-61622419D02*
X108017544Y-61670038D01*
X108017544Y-61670038D02*
X107969925Y-61717657D01*
X107969925Y-61717657D02*
X107922306Y-61812895D01*
X107922306Y-61812895D02*
X107922306Y-61908133D01*
X107922306Y-61908133D02*
X107969925Y-62050990D01*
X107969925Y-62050990D02*
X108541353Y-62622419D01*
X108541353Y-62622419D02*
X107922306Y-62622419D01*
X107065163Y-61622419D02*
X107255639Y-61622419D01*
X107255639Y-61622419D02*
X107350877Y-61670038D01*
X107350877Y-61670038D02*
X107398496Y-61717657D01*
X107398496Y-61717657D02*
X107493734Y-61860514D01*
X107493734Y-61860514D02*
X107541353Y-62050990D01*
X107541353Y-62050990D02*
X107541353Y-62431942D01*
X107541353Y-62431942D02*
X107493734Y-62527180D01*
X107493734Y-62527180D02*
X107446115Y-62574800D01*
X107446115Y-62574800D02*
X107350877Y-62622419D01*
X107350877Y-62622419D02*
X107160401Y-62622419D01*
X107160401Y-62622419D02*
X107065163Y-62574800D01*
X107065163Y-62574800D02*
X107017544Y-62527180D01*
X107017544Y-62527180D02*
X106969925Y-62431942D01*
X106969925Y-62431942D02*
X106969925Y-62193847D01*
X106969925Y-62193847D02*
X107017544Y-62098609D01*
X107017544Y-62098609D02*
X107065163Y-62050990D01*
X107065163Y-62050990D02*
X107160401Y-62003371D01*
X107160401Y-62003371D02*
X107350877Y-62003371D01*
X107350877Y-62003371D02*
X107446115Y-62050990D01*
X107446115Y-62050990D02*
X107493734Y-62098609D01*
X107493734Y-62098609D02*
X107541353Y-62193847D01*
X108493734Y-59217657D02*
X108446115Y-59170038D01*
X108446115Y-59170038D02*
X108350877Y-59122419D01*
X108350877Y-59122419D02*
X108112782Y-59122419D01*
X108112782Y-59122419D02*
X108017544Y-59170038D01*
X108017544Y-59170038D02*
X107969925Y-59217657D01*
X107969925Y-59217657D02*
X107922306Y-59312895D01*
X107922306Y-59312895D02*
X107922306Y-59408133D01*
X107922306Y-59408133D02*
X107969925Y-59550990D01*
X107969925Y-59550990D02*
X108541353Y-60122419D01*
X108541353Y-60122419D02*
X107922306Y-60122419D01*
X107017544Y-59122419D02*
X107493734Y-59122419D01*
X107493734Y-59122419D02*
X107541353Y-59598609D01*
X107541353Y-59598609D02*
X107493734Y-59550990D01*
X107493734Y-59550990D02*
X107398496Y-59503371D01*
X107398496Y-59503371D02*
X107160401Y-59503371D01*
X107160401Y-59503371D02*
X107065163Y-59550990D01*
X107065163Y-59550990D02*
X107017544Y-59598609D01*
X107017544Y-59598609D02*
X106969925Y-59693847D01*
X106969925Y-59693847D02*
X106969925Y-59931942D01*
X106969925Y-59931942D02*
X107017544Y-60027180D01*
X107017544Y-60027180D02*
X107065163Y-60074800D01*
X107065163Y-60074800D02*
X107160401Y-60122419D01*
X107160401Y-60122419D02*
X107398496Y-60122419D01*
X107398496Y-60122419D02*
X107493734Y-60074800D01*
X107493734Y-60074800D02*
X107541353Y-60027180D01*
X108541353Y-56622419D02*
X107922306Y-56622419D01*
X107922306Y-56622419D02*
X108255639Y-57003371D01*
X108255639Y-57003371D02*
X108112782Y-57003371D01*
X108112782Y-57003371D02*
X108017544Y-57050990D01*
X108017544Y-57050990D02*
X107969925Y-57098609D01*
X107969925Y-57098609D02*
X107922306Y-57193847D01*
X107922306Y-57193847D02*
X107922306Y-57431942D01*
X107922306Y-57431942D02*
X107969925Y-57527180D01*
X107969925Y-57527180D02*
X108017544Y-57574800D01*
X108017544Y-57574800D02*
X108112782Y-57622419D01*
X108112782Y-57622419D02*
X108398496Y-57622419D01*
X108398496Y-57622419D02*
X108493734Y-57574800D01*
X108493734Y-57574800D02*
X108541353Y-57527180D01*
X107588972Y-56622419D02*
X106969925Y-56622419D01*
X106969925Y-56622419D02*
X107303258Y-57003371D01*
X107303258Y-57003371D02*
X107160401Y-57003371D01*
X107160401Y-57003371D02*
X107065163Y-57050990D01*
X107065163Y-57050990D02*
X107017544Y-57098609D01*
X107017544Y-57098609D02*
X106969925Y-57193847D01*
X106969925Y-57193847D02*
X106969925Y-57431942D01*
X106969925Y-57431942D02*
X107017544Y-57527180D01*
X107017544Y-57527180D02*
X107065163Y-57574800D01*
X107065163Y-57574800D02*
X107160401Y-57622419D01*
X107160401Y-57622419D02*
X107446115Y-57622419D01*
X107446115Y-57622419D02*
X107541353Y-57574800D01*
X107541353Y-57574800D02*
X107588972Y-57527180D01*
X108541353Y-53872419D02*
X107922306Y-53872419D01*
X107922306Y-53872419D02*
X108255639Y-54253371D01*
X108255639Y-54253371D02*
X108112782Y-54253371D01*
X108112782Y-54253371D02*
X108017544Y-54300990D01*
X108017544Y-54300990D02*
X107969925Y-54348609D01*
X107969925Y-54348609D02*
X107922306Y-54443847D01*
X107922306Y-54443847D02*
X107922306Y-54681942D01*
X107922306Y-54681942D02*
X107969925Y-54777180D01*
X107969925Y-54777180D02*
X108017544Y-54824800D01*
X108017544Y-54824800D02*
X108112782Y-54872419D01*
X108112782Y-54872419D02*
X108398496Y-54872419D01*
X108398496Y-54872419D02*
X108493734Y-54824800D01*
X108493734Y-54824800D02*
X108541353Y-54777180D01*
X107541353Y-53967657D02*
X107493734Y-53920038D01*
X107493734Y-53920038D02*
X107398496Y-53872419D01*
X107398496Y-53872419D02*
X107160401Y-53872419D01*
X107160401Y-53872419D02*
X107065163Y-53920038D01*
X107065163Y-53920038D02*
X107017544Y-53967657D01*
X107017544Y-53967657D02*
X106969925Y-54062895D01*
X106969925Y-54062895D02*
X106969925Y-54158133D01*
X106969925Y-54158133D02*
X107017544Y-54300990D01*
X107017544Y-54300990D02*
X107588972Y-54872419D01*
X107588972Y-54872419D02*
X106969925Y-54872419D01*
X108541353Y-51372419D02*
X107922306Y-51372419D01*
X107922306Y-51372419D02*
X108255639Y-51753371D01*
X108255639Y-51753371D02*
X108112782Y-51753371D01*
X108112782Y-51753371D02*
X108017544Y-51800990D01*
X108017544Y-51800990D02*
X107969925Y-51848609D01*
X107969925Y-51848609D02*
X107922306Y-51943847D01*
X107922306Y-51943847D02*
X107922306Y-52181942D01*
X107922306Y-52181942D02*
X107969925Y-52277180D01*
X107969925Y-52277180D02*
X108017544Y-52324800D01*
X108017544Y-52324800D02*
X108112782Y-52372419D01*
X108112782Y-52372419D02*
X108398496Y-52372419D01*
X108398496Y-52372419D02*
X108493734Y-52324800D01*
X108493734Y-52324800D02*
X108541353Y-52277180D01*
X107017544Y-51372419D02*
X107493734Y-51372419D01*
X107493734Y-51372419D02*
X107541353Y-51848609D01*
X107541353Y-51848609D02*
X107493734Y-51800990D01*
X107493734Y-51800990D02*
X107398496Y-51753371D01*
X107398496Y-51753371D02*
X107160401Y-51753371D01*
X107160401Y-51753371D02*
X107065163Y-51800990D01*
X107065163Y-51800990D02*
X107017544Y-51848609D01*
X107017544Y-51848609D02*
X106969925Y-51943847D01*
X106969925Y-51943847D02*
X106969925Y-52181942D01*
X106969925Y-52181942D02*
X107017544Y-52277180D01*
X107017544Y-52277180D02*
X107065163Y-52324800D01*
X107065163Y-52324800D02*
X107160401Y-52372419D01*
X107160401Y-52372419D02*
X107398496Y-52372419D01*
X107398496Y-52372419D02*
X107493734Y-52324800D01*
X107493734Y-52324800D02*
X107541353Y-52277180D01*
X108541353Y-48872419D02*
X107922306Y-48872419D01*
X107922306Y-48872419D02*
X108255639Y-49253371D01*
X108255639Y-49253371D02*
X108112782Y-49253371D01*
X108112782Y-49253371D02*
X108017544Y-49300990D01*
X108017544Y-49300990D02*
X107969925Y-49348609D01*
X107969925Y-49348609D02*
X107922306Y-49443847D01*
X107922306Y-49443847D02*
X107922306Y-49681942D01*
X107922306Y-49681942D02*
X107969925Y-49777180D01*
X107969925Y-49777180D02*
X108017544Y-49824800D01*
X108017544Y-49824800D02*
X108112782Y-49872419D01*
X108112782Y-49872419D02*
X108398496Y-49872419D01*
X108398496Y-49872419D02*
X108493734Y-49824800D01*
X108493734Y-49824800D02*
X108541353Y-49777180D01*
X107065163Y-49205752D02*
X107065163Y-49872419D01*
X107303258Y-48824800D02*
X107541353Y-49539085D01*
X107541353Y-49539085D02*
X106922306Y-49539085D01*
X108541353Y-46372419D02*
X107922306Y-46372419D01*
X107922306Y-46372419D02*
X108255639Y-46753371D01*
X108255639Y-46753371D02*
X108112782Y-46753371D01*
X108112782Y-46753371D02*
X108017544Y-46800990D01*
X108017544Y-46800990D02*
X107969925Y-46848609D01*
X107969925Y-46848609D02*
X107922306Y-46943847D01*
X107922306Y-46943847D02*
X107922306Y-47181942D01*
X107922306Y-47181942D02*
X107969925Y-47277180D01*
X107969925Y-47277180D02*
X108017544Y-47324800D01*
X108017544Y-47324800D02*
X108112782Y-47372419D01*
X108112782Y-47372419D02*
X108398496Y-47372419D01*
X108398496Y-47372419D02*
X108493734Y-47324800D01*
X108493734Y-47324800D02*
X108541353Y-47277180D01*
X107446115Y-47372419D02*
X107255639Y-47372419D01*
X107255639Y-47372419D02*
X107160401Y-47324800D01*
X107160401Y-47324800D02*
X107112782Y-47277180D01*
X107112782Y-47277180D02*
X107017544Y-47134323D01*
X107017544Y-47134323D02*
X106969925Y-46943847D01*
X106969925Y-46943847D02*
X106969925Y-46562895D01*
X106969925Y-46562895D02*
X107017544Y-46467657D01*
X107017544Y-46467657D02*
X107065163Y-46420038D01*
X107065163Y-46420038D02*
X107160401Y-46372419D01*
X107160401Y-46372419D02*
X107350877Y-46372419D01*
X107350877Y-46372419D02*
X107446115Y-46420038D01*
X107446115Y-46420038D02*
X107493734Y-46467657D01*
X107493734Y-46467657D02*
X107541353Y-46562895D01*
X107541353Y-46562895D02*
X107541353Y-46800990D01*
X107541353Y-46800990D02*
X107493734Y-46896228D01*
X107493734Y-46896228D02*
X107446115Y-46943847D01*
X107446115Y-46943847D02*
X107350877Y-46991466D01*
X107350877Y-46991466D02*
X107160401Y-46991466D01*
X107160401Y-46991466D02*
X107065163Y-46943847D01*
X107065163Y-46943847D02*
X107017544Y-46896228D01*
X107017544Y-46896228D02*
X106969925Y-46800990D01*
X108541353Y-43872419D02*
X107922306Y-43872419D01*
X107922306Y-43872419D02*
X108255639Y-44253371D01*
X108255639Y-44253371D02*
X108112782Y-44253371D01*
X108112782Y-44253371D02*
X108017544Y-44300990D01*
X108017544Y-44300990D02*
X107969925Y-44348609D01*
X107969925Y-44348609D02*
X107922306Y-44443847D01*
X107922306Y-44443847D02*
X107922306Y-44681942D01*
X107922306Y-44681942D02*
X107969925Y-44777180D01*
X107969925Y-44777180D02*
X108017544Y-44824800D01*
X108017544Y-44824800D02*
X108112782Y-44872419D01*
X108112782Y-44872419D02*
X108398496Y-44872419D01*
X108398496Y-44872419D02*
X108493734Y-44824800D01*
X108493734Y-44824800D02*
X108541353Y-44777180D01*
X107065163Y-43872419D02*
X107255639Y-43872419D01*
X107255639Y-43872419D02*
X107350877Y-43920038D01*
X107350877Y-43920038D02*
X107398496Y-43967657D01*
X107398496Y-43967657D02*
X107493734Y-44110514D01*
X107493734Y-44110514D02*
X107541353Y-44300990D01*
X107541353Y-44300990D02*
X107541353Y-44681942D01*
X107541353Y-44681942D02*
X107493734Y-44777180D01*
X107493734Y-44777180D02*
X107446115Y-44824800D01*
X107446115Y-44824800D02*
X107350877Y-44872419D01*
X107350877Y-44872419D02*
X107160401Y-44872419D01*
X107160401Y-44872419D02*
X107065163Y-44824800D01*
X107065163Y-44824800D02*
X107017544Y-44777180D01*
X107017544Y-44777180D02*
X106969925Y-44681942D01*
X106969925Y-44681942D02*
X106969925Y-44443847D01*
X106969925Y-44443847D02*
X107017544Y-44348609D01*
X107017544Y-44348609D02*
X107065163Y-44300990D01*
X107065163Y-44300990D02*
X107160401Y-44253371D01*
X107160401Y-44253371D02*
X107350877Y-44253371D01*
X107350877Y-44253371D02*
X107446115Y-44300990D01*
X107446115Y-44300990D02*
X107493734Y-44348609D01*
X107493734Y-44348609D02*
X107541353Y-44443847D01*
X108446115Y-41598609D02*
X108112782Y-41598609D01*
X107969925Y-42122419D02*
X108446115Y-42122419D01*
X108446115Y-42122419D02*
X108446115Y-41122419D01*
X108446115Y-41122419D02*
X107969925Y-41122419D01*
X107541353Y-42122419D02*
X107541353Y-41122419D01*
X107541353Y-41122419D02*
X106969925Y-42122419D01*
X106969925Y-42122419D02*
X106969925Y-41122419D01*
X109041353Y-38872419D02*
X108422306Y-38872419D01*
X108422306Y-38872419D02*
X108755639Y-39253371D01*
X108755639Y-39253371D02*
X108612782Y-39253371D01*
X108612782Y-39253371D02*
X108517544Y-39300990D01*
X108517544Y-39300990D02*
X108469925Y-39348609D01*
X108469925Y-39348609D02*
X108422306Y-39443847D01*
X108422306Y-39443847D02*
X108422306Y-39681942D01*
X108422306Y-39681942D02*
X108469925Y-39777180D01*
X108469925Y-39777180D02*
X108517544Y-39824800D01*
X108517544Y-39824800D02*
X108612782Y-39872419D01*
X108612782Y-39872419D02*
X108898496Y-39872419D01*
X108898496Y-39872419D02*
X108993734Y-39824800D01*
X108993734Y-39824800D02*
X109041353Y-39777180D01*
X108136591Y-38872419D02*
X107803258Y-39872419D01*
X107803258Y-39872419D02*
X107469925Y-38872419D01*
X107231829Y-38872419D02*
X106612782Y-38872419D01*
X106612782Y-38872419D02*
X106946115Y-39253371D01*
X106946115Y-39253371D02*
X106803258Y-39253371D01*
X106803258Y-39253371D02*
X106708020Y-39300990D01*
X106708020Y-39300990D02*
X106660401Y-39348609D01*
X106660401Y-39348609D02*
X106612782Y-39443847D01*
X106612782Y-39443847D02*
X106612782Y-39681942D01*
X106612782Y-39681942D02*
X106660401Y-39777180D01*
X106660401Y-39777180D02*
X106708020Y-39824800D01*
X106708020Y-39824800D02*
X106803258Y-39872419D01*
X106803258Y-39872419D02*
X107088972Y-39872419D01*
X107088972Y-39872419D02*
X107184210Y-39824800D01*
X107184210Y-39824800D02*
X107231829Y-39777180D01*
D11*
X105333333Y-74204819D02*
X105333333Y-74919104D01*
X105333333Y-74919104D02*
X105380952Y-75061961D01*
X105380952Y-75061961D02*
X105476190Y-75157200D01*
X105476190Y-75157200D02*
X105619047Y-75204819D01*
X105619047Y-75204819D02*
X105714285Y-75204819D01*
X104904761Y-74300057D02*
X104857142Y-74252438D01*
X104857142Y-74252438D02*
X104761904Y-74204819D01*
X104761904Y-74204819D02*
X104523809Y-74204819D01*
X104523809Y-74204819D02*
X104428571Y-74252438D01*
X104428571Y-74252438D02*
X104380952Y-74300057D01*
X104380952Y-74300057D02*
X104333333Y-74395295D01*
X104333333Y-74395295D02*
X104333333Y-74490533D01*
X104333333Y-74490533D02*
X104380952Y-74633390D01*
X104380952Y-74633390D02*
X104952380Y-75204819D01*
X104952380Y-75204819D02*
X104333333Y-75204819D01*
X129333333Y-64334819D02*
X129333333Y-65049104D01*
X129333333Y-65049104D02*
X129380952Y-65191961D01*
X129380952Y-65191961D02*
X129476190Y-65287200D01*
X129476190Y-65287200D02*
X129619047Y-65334819D01*
X129619047Y-65334819D02*
X129714285Y-65334819D01*
X128952380Y-64334819D02*
X128333333Y-64334819D01*
X128333333Y-64334819D02*
X128666666Y-64715771D01*
X128666666Y-64715771D02*
X128523809Y-64715771D01*
X128523809Y-64715771D02*
X128428571Y-64763390D01*
X128428571Y-64763390D02*
X128380952Y-64811009D01*
X128380952Y-64811009D02*
X128333333Y-64906247D01*
X128333333Y-64906247D02*
X128333333Y-65144342D01*
X128333333Y-65144342D02*
X128380952Y-65239580D01*
X128380952Y-65239580D02*
X128428571Y-65287200D01*
X128428571Y-65287200D02*
X128523809Y-65334819D01*
X128523809Y-65334819D02*
X128809523Y-65334819D01*
X128809523Y-65334819D02*
X128904761Y-65287200D01*
X128904761Y-65287200D02*
X128952380Y-65239580D01*
%TO.C,J2*%
D12*
X106380000Y-37960000D02*
X105000000Y-37960000D01*
X106380000Y-39340000D02*
X106380000Y-37960000D01*
X106380000Y-40610000D02*
X106380000Y-73740000D01*
X106380000Y-40610000D02*
X103620000Y-40610000D01*
X106380000Y-73740000D02*
X103620000Y-73740000D01*
X103620000Y-40610000D02*
X103620000Y-73740000D01*
%TO.C,J3*%
X130380000Y-61230000D02*
X130380000Y-38260000D01*
X127620000Y-38260000D02*
X130380000Y-38260000D01*
X127620000Y-61230000D02*
X130380000Y-61230000D01*
X127620000Y-61230000D02*
X127620000Y-38260000D01*
X127620000Y-62500000D02*
X127620000Y-63880000D01*
X127620000Y-63880000D02*
X129000000Y-63880000D01*
%TD*%
M02*
