%TF.GenerationSoftware,KiCad,Pcbnew,10.0.4*%
%TF.CreationDate,2026-07-16T15:51:38-05:00*%
%TF.ProjectId,NEXUS-ESP32-DevKit,4e455855-532d-4455-9350-33322d446576,rev?*%
%TF.SameCoordinates,Original*%
%TF.FileFunction,Soldermask,Bot*%
%TF.FilePolarity,Negative*%
%FSLAX46Y46*%
G04 Gerber Fmt 4.6, Leading zero omitted, Abs format (unit mm)*
G04 Created by KiCad (PCBNEW 10.0.4) date 2026-07-16 15:51:38*
%MOMM*%
%LPD*%
G01*
G04 APERTURE LIST*
%ADD10C,0.700000*%
%ADD11O,0.900000X2.400000*%
%ADD12O,0.900000X1.700000*%
%ADD13R,1.700000X1.700000*%
%ADD14C,1.700000*%
%ADD15C,0.600000*%
G04 APERTURE END LIST*
D10*
%TO.C,J1*%
X119750000Y-90480000D03*
X118900000Y-90480000D03*
X118050000Y-90480000D03*
X117200000Y-90480000D03*
X116350000Y-90480000D03*
X115500000Y-90480000D03*
X114650000Y-90480000D03*
X113800000Y-90480000D03*
X113800000Y-89130000D03*
X114650000Y-89130000D03*
X115500000Y-89130000D03*
X116350000Y-89130000D03*
X117200000Y-89130000D03*
X118050000Y-89130000D03*
X118900000Y-89130000D03*
X119750000Y-89130000D03*
D11*
X121100000Y-89500000D03*
D12*
X121100000Y-86120000D03*
D11*
X112450000Y-89500000D03*
D12*
X112450000Y-86120000D03*
%TD*%
D13*
%TO.C,J2*%
X105000000Y-39340000D03*
D14*
X105000000Y-41880000D03*
X105000000Y-44420000D03*
X105000000Y-46960000D03*
X105000000Y-49500000D03*
X105000000Y-52040000D03*
X105000000Y-54580000D03*
X105000000Y-57120000D03*
X105000000Y-59660000D03*
X105000000Y-62200000D03*
X105000000Y-64740000D03*
X105000000Y-67280000D03*
X105000000Y-69820000D03*
X105000000Y-72360000D03*
%TD*%
D15*
%TO.C,U1*%
X114350000Y-45400000D03*
X114350000Y-46800000D03*
X115050000Y-44700000D03*
X115050000Y-46100000D03*
X115050000Y-47500000D03*
X115750000Y-45400000D03*
X115750000Y-46800000D03*
X116450000Y-44700000D03*
X116450000Y-46100000D03*
X116450000Y-47500000D03*
X117150000Y-45400000D03*
X117150000Y-46800000D03*
%TD*%
D13*
%TO.C,J3*%
X129000000Y-62500000D03*
D14*
X129000000Y-59960000D03*
X129000000Y-57420000D03*
X129000000Y-54880000D03*
X129000000Y-52340000D03*
X129000000Y-49800000D03*
X129000000Y-47260000D03*
X129000000Y-44720000D03*
X129000000Y-42180000D03*
X129000000Y-39640000D03*
%TD*%
M02*
