%TF.GenerationSoftware,KiCad,Pcbnew,10.0.4*%
%TF.CreationDate,2026-07-16T15:51:38-05:00*%
%TF.ProjectId,NEXUS-ESP32-DevKit,4e455855-532d-4455-9350-33322d446576,rev?*%
%TF.SameCoordinates,Original*%
%TF.FileFunction,Copper,L1,Top*%
%TF.FilePolarity,Positive*%
%FSLAX46Y46*%
G04 Gerber Fmt 4.6, Leading zero omitted, Abs format (unit mm)*
G04 Created by KiCad (PCBNEW 10.0.4) date 2026-07-16 15:51:38*
%MOMM*%
%LPD*%
G01*
G04 APERTURE LIST*
G04 Aperture macros list*
%AMRoundRect*
0 Rectangle with rounded corners*
0 $1 Rounding radius*
0 $2 $3 $4 $5 $6 $7 $8 $9 X,Y pos of 4 corners*
0 Add a 4 corners polygon primitive as box body*
4,1,4,$2,$3,$4,$5,$6,$7,$8,$9,$2,$3,0*
0 Add four circle primitives for the rounded corners*
1,1,$1+$1,$2,$3*
1,1,$1+$1,$4,$5*
1,1,$1+$1,$6,$7*
1,1,$1+$1,$8,$9*
0 Add four rect primitives between the rounded corners*
20,1,$1+$1,$2,$3,$4,$5,0*
20,1,$1+$1,$4,$5,$6,$7,0*
20,1,$1+$1,$6,$7,$8,$9,0*
20,1,$1+$1,$8,$9,$2,$3,0*%
G04 Aperture macros list end*
%TA.AperFunction,SMDPad,CuDef*%
%ADD10RoundRect,0.150000X-0.587500X-0.150000X0.587500X-0.150000X0.587500X0.150000X-0.587500X0.150000X0*%
%TD*%
%TA.AperFunction,SMDPad,CuDef*%
%ADD11RoundRect,0.250000X-0.262500X-0.450000X0.262500X-0.450000X0.262500X0.450000X-0.262500X0.450000X0*%
%TD*%
%TA.AperFunction,SMDPad,CuDef*%
%ADD12RoundRect,0.225000X-0.225000X-0.375000X0.225000X-0.375000X0.225000X0.375000X-0.225000X0.375000X0*%
%TD*%
%TA.AperFunction,SMDPad,CuDef*%
%ADD13RoundRect,0.243750X-0.243750X-0.456250X0.243750X-0.456250X0.243750X0.456250X-0.243750X0.456250X0*%
%TD*%
%TA.AperFunction,SMDPad,CuDef*%
%ADD14RoundRect,0.250000X-0.250000X-0.475000X0.250000X-0.475000X0.250000X0.475000X-0.250000X0.475000X0*%
%TD*%
%TA.AperFunction,SMDPad,CuDef*%
%ADD15RoundRect,0.150000X0.150000X-0.825000X0.150000X0.825000X-0.150000X0.825000X-0.150000X-0.825000X0*%
%TD*%
%TA.AperFunction,ComponentPad*%
%ADD16C,0.700000*%
%TD*%
%TA.AperFunction,ComponentPad*%
%ADD17O,0.900000X2.400000*%
%TD*%
%TA.AperFunction,ComponentPad*%
%ADD18O,0.900000X1.700000*%
%TD*%
%TA.AperFunction,SMDPad,CuDef*%
%ADD19RoundRect,0.150000X0.587500X0.150000X-0.587500X0.150000X-0.587500X-0.150000X0.587500X-0.150000X0*%
%TD*%
%TA.AperFunction,ComponentPad*%
%ADD20R,1.700000X1.700000*%
%TD*%
%TA.AperFunction,ComponentPad*%
%ADD21C,1.700000*%
%TD*%
%TA.AperFunction,SMDPad,CuDef*%
%ADD22RoundRect,0.375000X-0.625000X-0.375000X0.625000X-0.375000X0.625000X0.375000X-0.625000X0.375000X0*%
%TD*%
%TA.AperFunction,SMDPad,CuDef*%
%ADD23RoundRect,0.500000X-0.500000X-1.400000X0.500000X-1.400000X0.500000X1.400000X-0.500000X1.400000X0*%
%TD*%
%TA.AperFunction,SMDPad,CuDef*%
%ADD24R,1.500000X0.900000*%
%TD*%
%TA.AperFunction,SMDPad,CuDef*%
%ADD25R,0.900000X1.500000*%
%TD*%
%TA.AperFunction,HeatsinkPad*%
%ADD26R,0.900000X0.900000*%
%TD*%
%TA.AperFunction,HeatsinkPad*%
%ADD27C,0.600000*%
%TD*%
%TA.AperFunction,SMDPad,CuDef*%
%ADD28R,1.000000X1.700000*%
%TD*%
%TA.AperFunction,SMDPad,CuDef*%
%ADD29RoundRect,0.250000X-0.475000X0.250000X-0.475000X-0.250000X0.475000X-0.250000X0.475000X0.250000X0*%
%TD*%
%TA.AperFunction,ViaPad*%
%ADD30C,0.300000*%
%TD*%
%TA.AperFunction,Conductor*%
%ADD31C,0.500000*%
%TD*%
%TA.AperFunction,Conductor*%
%ADD32C,0.200000*%
%TD*%
%TA.AperFunction,Conductor*%
%ADD33C,0.250000*%
%TD*%
G04 APERTURE END LIST*
D10*
%TO.P,Q1,3,E_3*%
%TO.N,GND*%
X110000000Y-60250000D03*
%TO.P,Q1,2,C_2*%
%TO.N,EN*%
X108125000Y-61200000D03*
%TO.P,Q1,1,B_1*%
%TO.N,Net-(Q1-B)*%
X108125000Y-59300000D03*
%TD*%
D11*
%TO.P,R6,1*%
%TO.N,GPIO0*%
X127675000Y-71500000D03*
%TO.P,R6,2*%
%TO.N,+3V3*%
X129500000Y-71500000D03*
%TD*%
%TO.P,R7,1*%
%TO.N,+3V3*%
X106425000Y-77250000D03*
%TO.P,R7,2*%
%TO.N,Net-(D2-A)*%
X108250000Y-77250000D03*
%TD*%
D12*
%TO.P,D1,1,K_1*%
%TO.N,VBUS*%
X125700000Y-76000000D03*
%TO.P,D1,2,A_2*%
%TO.N,Net-(D1-A)*%
X129000000Y-76000000D03*
%TD*%
D13*
%TO.P,D2,1,K_1*%
%TO.N,GND*%
X106375000Y-80750000D03*
%TO.P,D2,2,A_2*%
%TO.N,Net-(D2-A)*%
X108250000Y-80750000D03*
%TD*%
D14*
%TO.P,C6,1*%
%TO.N,GPIO0*%
X123100000Y-68000000D03*
%TO.P,C6,2*%
%TO.N,GND*%
X125000000Y-68000000D03*
%TD*%
D11*
%TO.P,R2,1*%
%TO.N,Net-(J1-CC2)*%
X123675000Y-80500000D03*
%TO.P,R2,2*%
%TO.N,GND*%
X125500000Y-80500000D03*
%TD*%
D15*
%TO.P,U3,1,GND_1*%
%TO.N,GND*%
X113110000Y-79000000D03*
%TO.P,U3,2,TXD_2*%
%TO.N,RX*%
X114380000Y-79000000D03*
%TO.P,U3,3,RXD_3*%
%TO.N,TX*%
X115650000Y-79000000D03*
%TO.P,U3,4,V3_4*%
%TO.N,+3V3*%
X116920000Y-79000000D03*
%TO.P,U3,5,UD+_5*%
%TO.N,D+*%
X118190000Y-79000000D03*
%TO.P,U3,6,UD-_6*%
%TO.N,D-*%
X119460000Y-79000000D03*
%TO.P,U3,7,NC_7*%
%TO.N,unconnected-(U3-NC-Pad7)*%
X120730000Y-79000000D03*
%TO.P,U3,8,NC_8*%
%TO.N,unconnected-(U3-NC-Pad8)*%
X122000000Y-79000000D03*
%TO.P,U3,9,~{CTS}_9*%
%TO.N,unconnected-(U3-~{CTS}-Pad9)*%
X122000000Y-74050000D03*
%TO.P,U3,10,~{DSR}_10*%
%TO.N,unconnected-(U3-~{DSR}-Pad10)*%
X120730000Y-74050000D03*
%TO.P,U3,11,~{RI}_11*%
%TO.N,unconnected-(U3-~{RI}-Pad11)*%
X119460000Y-74050000D03*
%TO.P,U3,12,~{DCD}_12*%
%TO.N,unconnected-(U3-~{DCD}-Pad12)*%
X118190000Y-74050000D03*
%TO.P,U3,13,~{DTR}_13*%
%TO.N,DTR*%
X116920000Y-74050000D03*
%TO.P,U3,14,~{RTS}_14*%
%TO.N,RTS*%
X115650000Y-74050000D03*
%TO.P,U3,15,R232_15*%
%TO.N,unconnected-(U3-R232-Pad15)*%
X114380000Y-74050000D03*
%TO.P,U3,16,VCC_16*%
%TO.N,+3V3*%
X113110000Y-74050000D03*
%TD*%
D16*
%TO.P,J1,A1,GND_A1*%
%TO.N,GND*%
X119750000Y-90480000D03*
%TO.P,J1,A4,VBUS_A4*%
%TO.N,Net-(D1-A)*%
X118900000Y-90480000D03*
%TO.P,J1,A5,CC1_A5*%
%TO.N,Net-(J1-CC1)*%
X118050000Y-90480000D03*
%TO.P,J1,A6,D+_A6*%
%TO.N,D+*%
X117200000Y-90480000D03*
%TO.P,J1,A7,D-_A7*%
%TO.N,D-*%
X116350000Y-90480000D03*
%TO.P,J1,A8,SBU1_A8*%
%TO.N,unconnected-(J1-SBU1-PadA8)*%
X115500000Y-90480000D03*
%TO.P,J1,A9,VBUS_A9*%
%TO.N,Net-(D1-A)*%
X114650000Y-90480000D03*
%TO.P,J1,A12,GND_A12*%
%TO.N,GND*%
X113800000Y-90480000D03*
%TO.P,J1,B1,GND_B1*%
X113800000Y-89130000D03*
%TO.P,J1,B4,VBUS_B4*%
%TO.N,Net-(D1-A)*%
X114650000Y-89130000D03*
%TO.P,J1,B5,CC2_B5*%
%TO.N,Net-(J1-CC2)*%
X115500000Y-89130000D03*
%TO.P,J1,B6,D+_B6*%
%TO.N,D+*%
X116350000Y-89130000D03*
%TO.P,J1,B7,D-_B7*%
%TO.N,D-*%
X117200000Y-89130000D03*
%TO.P,J1,B8,SBU2_B8*%
%TO.N,unconnected-(J1-SBU2-PadB8)*%
X118050000Y-89130000D03*
%TO.P,J1,B9,VBUS_B9*%
%TO.N,Net-(D1-A)*%
X118900000Y-89130000D03*
%TO.P,J1,B12,GND_B12*%
%TO.N,GND*%
X119750000Y-89130000D03*
D17*
%TO.P,J1,SH,SHIELD_SH*%
X121100000Y-89500000D03*
D18*
X121100000Y-86120000D03*
D17*
X112450000Y-89500000D03*
D18*
X112450000Y-86120000D03*
%TD*%
D19*
%TO.P,Q2,1,B_1*%
%TO.N,Net-(Q2-B)*%
X116750000Y-61000000D03*
%TO.P,Q2,2,C_2*%
%TO.N,GPIO0*%
X116750000Y-59100000D03*
%TO.P,Q2,3,E_3*%
%TO.N,GND*%
X114875000Y-60050000D03*
%TD*%
D11*
%TO.P,R3,1*%
%TO.N,+3V3*%
X124175000Y-59500000D03*
%TO.P,R3,2*%
%TO.N,EN*%
X126000000Y-59500000D03*
%TD*%
D14*
%TO.P,C2,1*%
%TO.N,+3V3*%
X123800000Y-63000000D03*
%TO.P,C2,2*%
%TO.N,GND*%
X125700000Y-63000000D03*
%TD*%
D11*
%TO.P,R4,1*%
%TO.N,DTR*%
X111587500Y-62250000D03*
%TO.P,R4,2*%
%TO.N,Net-(Q1-B)*%
X113412500Y-62250000D03*
%TD*%
D20*
%TO.P,J2,1,Pin_1_1*%
%TO.N,+3V3*%
X105000000Y-39340000D03*
D21*
%TO.P,J2,2,Pin_2_2*%
%TO.N,EN*%
X105000000Y-41880000D03*
%TO.P,J2,3,Pin_3_3*%
%TO.N,IO36*%
X105000000Y-44420000D03*
%TO.P,J2,4,Pin_4_4*%
%TO.N,IO39*%
X105000000Y-46960000D03*
%TO.P,J2,5,Pin_5_5*%
%TO.N,IO34*%
X105000000Y-49500000D03*
%TO.P,J2,6,Pin_6_6*%
%TO.N,IO35*%
X105000000Y-52040000D03*
%TO.P,J2,7,Pin_7_7*%
%TO.N,IO32*%
X105000000Y-54580000D03*
%TO.P,J2,8,Pin_8_8*%
%TO.N,IO33*%
X105000000Y-57120000D03*
%TO.P,J2,9,Pin_9_9*%
%TO.N,IO25*%
X105000000Y-59660000D03*
%TO.P,J2,10,Pin_10_10*%
%TO.N,IO26*%
X105000000Y-62200000D03*
%TO.P,J2,11,Pin_11_11*%
%TO.N,IO27*%
X105000000Y-64740000D03*
%TO.P,J2,12,Pin_12_12*%
%TO.N,IO14*%
X105000000Y-67280000D03*
%TO.P,J2,13,Pin_13_13*%
%TO.N,IO13*%
X105000000Y-69820000D03*
%TO.P,J2,14,Pin_14_14*%
%TO.N,GND*%
X105000000Y-72360000D03*
%TD*%
D22*
%TO.P,U2,1,GND_1*%
%TO.N,GND*%
X113850000Y-65700000D03*
%TO.P,U2,2,VO_2*%
%TO.N,+3V3*%
X113850000Y-68000000D03*
D23*
X120150000Y-68000000D03*
D22*
%TO.P,U2,3,VI_3*%
%TO.N,VBUS*%
X113850000Y-70300000D03*
%TD*%
D24*
%TO.P,U1,1,GND_1*%
%TO.N,GND*%
X108500000Y-38380000D03*
%TO.P,U1,2,VDD_2*%
%TO.N,+3V3*%
X108500000Y-39650000D03*
%TO.P,U1,3,EN_3*%
%TO.N,EN*%
X108500000Y-40920000D03*
%TO.P,U1,4,SENSOR_VP_4*%
%TO.N,IO36*%
X108500000Y-42190000D03*
%TO.P,U1,5,SENSOR_VN_5*%
%TO.N,IO39*%
X108500000Y-43460000D03*
%TO.P,U1,6,IO34_6*%
%TO.N,IO34*%
X108500000Y-44730000D03*
%TO.P,U1,7,IO35_7*%
%TO.N,IO35*%
X108500000Y-46000000D03*
%TO.P,U1,8,IO32_8*%
%TO.N,IO32*%
X108500000Y-47270000D03*
%TO.P,U1,9,IO33_9*%
%TO.N,IO33*%
X108500000Y-48540000D03*
%TO.P,U1,10,IO25_10*%
%TO.N,IO25*%
X108500000Y-49810000D03*
%TO.P,U1,11,IO26_11*%
%TO.N,IO26*%
X108500000Y-51080000D03*
%TO.P,U1,12,IO27_12*%
%TO.N,IO27*%
X108500000Y-52350000D03*
%TO.P,U1,13,IO14_13*%
%TO.N,IO14*%
X108500000Y-53620000D03*
%TO.P,U1,14,IO12_14*%
%TO.N,unconnected-(U1-IO12-Pad14)*%
X108500000Y-54890000D03*
D25*
%TO.P,U1,15,GND_15*%
%TO.N,GND*%
X111535000Y-56140000D03*
%TO.P,U1,16,IO13_16*%
%TO.N,IO13*%
X112805000Y-56140000D03*
%TO.P,U1,17,NC_17*%
%TO.N,unconnected-(U1-NC-Pad17)*%
X114075000Y-56140000D03*
%TO.P,U1,18,NC_18*%
%TO.N,unconnected-(U1-NC-Pad18)*%
X115345000Y-56140000D03*
%TO.P,U1,19,NC_19*%
%TO.N,unconnected-(U1-NC-Pad19)*%
X116615000Y-56140000D03*
%TO.P,U1,20,NC_20*%
%TO.N,unconnected-(U1-NC-Pad20)*%
X117885000Y-56140000D03*
%TO.P,U1,21,NC_21*%
%TO.N,unconnected-(U1-NC-Pad21)*%
X119155000Y-56140000D03*
%TO.P,U1,22,NC_22*%
%TO.N,unconnected-(U1-NC-Pad22)*%
X120425000Y-56140000D03*
%TO.P,U1,23,IO15_23*%
%TO.N,unconnected-(U1-IO15-Pad23)*%
X121695000Y-56140000D03*
%TO.P,U1,24,IO2_24*%
%TO.N,unconnected-(U1-IO2-Pad24)*%
X122965000Y-56140000D03*
D24*
%TO.P,U1,25,IO0_25*%
%TO.N,GPIO0*%
X126000000Y-54890000D03*
%TO.P,U1,26,IO4_26*%
%TO.N,IO4*%
X126000000Y-53620000D03*
%TO.P,U1,27,IO16_27*%
%TO.N,IO16*%
X126000000Y-52350000D03*
%TO.P,U1,28,IO17_28*%
%TO.N,IO17*%
X126000000Y-51080000D03*
%TO.P,U1,29,IO5_29*%
%TO.N,IO5*%
X126000000Y-49810000D03*
%TO.P,U1,30,IO18_30*%
%TO.N,IO18*%
X126000000Y-48540000D03*
%TO.P,U1,31,IO19_31*%
%TO.N,IO19*%
X126000000Y-47270000D03*
%TO.P,U1,32,NC_32*%
%TO.N,unconnected-(U1-NC-Pad32)*%
X126000000Y-46000000D03*
%TO.P,U1,33,IO21_33*%
%TO.N,IO21*%
X126000000Y-44730000D03*
%TO.P,U1,34,RXD0/IO3_34*%
%TO.N,RX*%
X126000000Y-43460000D03*
%TO.P,U1,35,TXD0/IO1_35*%
%TO.N,TX*%
X126000000Y-42190000D03*
%TO.P,U1,36,IO22_36*%
%TO.N,IO22*%
X126000000Y-40920000D03*
%TO.P,U1,37,IO23_37*%
%TO.N,IO23*%
X126000000Y-39650000D03*
%TO.P,U1,38,GND_38*%
%TO.N,GND*%
X126000000Y-38380000D03*
D26*
%TO.P,U1,39,GND_39*%
X114350000Y-44700000D03*
D27*
X114350000Y-45400000D03*
D26*
X114350000Y-46100000D03*
D27*
X114350000Y-46800000D03*
D26*
X114350000Y-47500000D03*
D27*
X115050000Y-44700000D03*
X115050000Y-46100000D03*
X115050000Y-47500000D03*
D26*
X115750000Y-44700000D03*
D27*
X115750000Y-45400000D03*
D26*
X115750000Y-46100000D03*
D27*
X115750000Y-46800000D03*
D26*
X115750000Y-47500000D03*
D27*
X116450000Y-44700000D03*
X116450000Y-46100000D03*
X116450000Y-47500000D03*
D26*
X117150000Y-44700000D03*
D27*
X117150000Y-45400000D03*
D26*
X117150000Y-46100000D03*
D27*
X117150000Y-46800000D03*
D26*
X117150000Y-47500000D03*
%TD*%
D28*
%TO.P,SW1,1,1_1*%
%TO.N,EN*%
X124100000Y-90150000D03*
X124100000Y-83850000D03*
%TO.P,SW1,2,2_2*%
%TO.N,GND*%
X127900000Y-90150000D03*
X127900000Y-83850000D03*
%TD*%
D14*
%TO.P,C5,1*%
%TO.N,EN*%
X127600000Y-68000000D03*
%TO.P,C5,2*%
%TO.N,GND*%
X129500000Y-68000000D03*
%TD*%
D29*
%TO.P,C4,1*%
%TO.N,+3V3*%
X110000000Y-69100000D03*
%TO.P,C4,2*%
%TO.N,GND*%
X110000000Y-71000000D03*
%TD*%
D14*
%TO.P,C1,1*%
%TO.N,+3V3*%
X119550000Y-59500000D03*
%TO.P,C1,2*%
%TO.N,GND*%
X121450000Y-59500000D03*
%TD*%
D11*
%TO.P,R5,1*%
%TO.N,RTS*%
X119587500Y-63250000D03*
%TO.P,R5,2*%
%TO.N,Net-(Q2-B)*%
X121412500Y-63250000D03*
%TD*%
D20*
%TO.P,J3,1,Pin_1_1*%
%TO.N,IO4*%
X129000000Y-62500000D03*
D21*
%TO.P,J3,2,Pin_2_2*%
%TO.N,IO16*%
X129000000Y-59960000D03*
%TO.P,J3,3,Pin_3_3*%
%TO.N,IO17*%
X129000000Y-57420000D03*
%TO.P,J3,4,Pin_4_4*%
%TO.N,IO5*%
X129000000Y-54880000D03*
%TO.P,J3,5,Pin_5_5*%
%TO.N,IO18*%
X129000000Y-52340000D03*
%TO.P,J3,6,Pin_6_6*%
%TO.N,IO19*%
X129000000Y-49800000D03*
%TO.P,J3,7,Pin_7_7*%
%TO.N,IO21*%
X129000000Y-47260000D03*
%TO.P,J3,8,Pin_8_8*%
%TO.N,IO22*%
X129000000Y-44720000D03*
%TO.P,J3,9,Pin_9_9*%
%TO.N,IO23*%
X129000000Y-42180000D03*
%TO.P,J3,10,Pin_10_10*%
%TO.N,GND*%
X129000000Y-39640000D03*
%TD*%
D29*
%TO.P,C3,1*%
%TO.N,VBUS*%
X110000000Y-65100000D03*
%TO.P,C3,2*%
%TO.N,GND*%
X110000000Y-67000000D03*
%TD*%
D11*
%TO.P,R1,1*%
%TO.N,Net-(J1-CC1)*%
X128087500Y-80500000D03*
%TO.P,R1,2*%
%TO.N,GND*%
X129912500Y-80500000D03*
%TD*%
D28*
%TO.P,SW2,1,1_1*%
%TO.N,GPIO0*%
X105600000Y-89650000D03*
X105600000Y-83350000D03*
%TO.P,SW2,2,2_2*%
%TO.N,GND*%
X109400000Y-89650000D03*
X109400000Y-83350000D03*
%TD*%
D30*
%TO.N,GND*%
X113750000Y-87750000D03*
X119750000Y-87500000D03*
%TO.N,GPIO0*%
X127750000Y-70000000D03*
X125500000Y-56250000D03*
%TO.N,+3V3*%
X119750000Y-65250000D03*
X129500000Y-70250000D03*
X110000000Y-39500000D03*
X120971208Y-70221208D03*
X116268868Y-77993195D03*
%TO.N,GND*%
X126250000Y-38500000D03*
X106500000Y-80750000D03*
X110000000Y-60250000D03*
X129500000Y-68000000D03*
X125000000Y-68000000D03*
X109500000Y-89750000D03*
X129500000Y-68000000D03*
X125750000Y-63000000D03*
X115000000Y-60000000D03*
X127900000Y-83850000D03*
X108500000Y-38250000D03*
X109500000Y-83250000D03*
X130250000Y-80500000D03*
X111335000Y-56640000D03*
X121500000Y-59500000D03*
X110000000Y-67000000D03*
X110000000Y-71000000D03*
X113750000Y-65750000D03*
X113000000Y-79000000D03*
X125750000Y-80750000D03*
%TO.N,RX*%
X113750553Y-78078261D03*
X124750000Y-44250000D03*
%TO.N,DTR*%
X116750000Y-72000000D03*
X111750000Y-63500000D03*
%TO.N,RTS*%
X118500000Y-63250000D03*
X115750000Y-72250000D03*
%TO.N,EN*%
X127750000Y-66000000D03*
X126000000Y-61000000D03*
%TO.N,IO27*%
X108500000Y-52819998D03*
%TO.N,IO14*%
X108000000Y-54089998D03*
%TO.N,IO13*%
X113500000Y-55000000D03*
%TO.N,IO4*%
X126000000Y-54089998D03*
%TO.N,IO16*%
X126600000Y-52750000D03*
%TD*%
%TO.N,GND*%
D31*
X113800000Y-87800000D02*
X113750000Y-87750000D01*
X113800000Y-89130000D02*
X113800000Y-87800000D01*
X119750000Y-89130000D02*
X119750000Y-87500000D01*
%TO.N,GPIO0*%
D32*
X125656465Y-78593535D02*
X127000000Y-77250000D01*
X105600000Y-90150000D02*
X105600000Y-83350000D01*
X127000000Y-69500000D02*
X127000000Y-68909744D01*
X107125732Y-83350000D02*
X112975732Y-77500000D01*
X126800000Y-67290256D02*
X127000000Y-67090256D01*
X127000000Y-67090256D02*
X127000000Y-60372244D01*
X125500000Y-56250000D02*
X125500000Y-55390000D01*
X112975732Y-77500000D02*
X119354314Y-77500000D01*
X124387930Y-77325000D02*
X125656465Y-78593535D01*
X105600000Y-83350000D02*
X107125732Y-83350000D01*
X126800000Y-68709744D02*
X126800000Y-67290256D01*
X123700000Y-57190000D02*
X126000000Y-54890000D01*
X126812500Y-55702500D02*
X126000000Y-54890000D01*
D33*
X123100000Y-68000000D02*
X124600000Y-69500000D01*
X124600000Y-69500000D02*
X127000000Y-69500000D01*
D32*
X127000000Y-60372244D02*
X126812500Y-60184744D01*
X118660000Y-57190000D02*
X123700000Y-57190000D01*
X119354314Y-77500000D02*
X119529315Y-77325000D01*
X126812500Y-60184744D02*
X126812500Y-55702500D01*
X125500000Y-55390000D02*
X126000000Y-54890000D01*
X127675000Y-70075000D02*
X127750000Y-70000000D01*
X127000000Y-68909744D02*
X126800000Y-68709744D01*
X116750000Y-59100000D02*
X118660000Y-57190000D01*
X127000000Y-77250000D02*
X127000000Y-69500000D01*
X127675000Y-71500000D02*
X127675000Y-70075000D01*
X119529315Y-77325000D02*
X124387930Y-77325000D01*
%TO.N,+3V3*%
X110709744Y-64300000D02*
X112550000Y-66140256D01*
X124175000Y-59500000D02*
X124175000Y-62625000D01*
X122925000Y-58250000D02*
X124175000Y-59500000D01*
X108190000Y-39340000D02*
X108500000Y-39650000D01*
X113110000Y-74050000D02*
X113110000Y-71619744D01*
X120150000Y-69400000D02*
X120150000Y-68000000D01*
X113110000Y-71619744D02*
X108975000Y-67484744D01*
X113465685Y-68000000D02*
X120150000Y-68000000D01*
X123800000Y-63000000D02*
X123800000Y-64350000D01*
X123800000Y-64350000D02*
X120150000Y-68000000D01*
X119750000Y-67600000D02*
X120150000Y-68000000D01*
X124175000Y-62625000D02*
X123800000Y-63000000D01*
X120971208Y-70221208D02*
X120150000Y-69400000D01*
X108975000Y-64615256D02*
X109290256Y-64300000D01*
X109850000Y-39650000D02*
X110000000Y-39500000D01*
X108250000Y-75425000D02*
X108250000Y-70000000D01*
X113850000Y-68000000D02*
X120150000Y-68000000D01*
X129500000Y-71500000D02*
X129500000Y-70250000D01*
X108975000Y-68075000D02*
X108975000Y-64615256D01*
X111025000Y-65559315D02*
X113465685Y-68000000D01*
X116920000Y-79000000D02*
X116920000Y-78644327D01*
X109290256Y-64300000D02*
X110709744Y-64300000D01*
X110000000Y-69100000D02*
X108975000Y-68075000D01*
X106425000Y-77250000D02*
X108250000Y-75425000D01*
X111025000Y-64615256D02*
X111025000Y-65559315D01*
X105000000Y-39340000D02*
X108190000Y-39340000D01*
X119750000Y-65250000D02*
X119750000Y-67600000D01*
X116920000Y-78644327D02*
X116268868Y-77993195D01*
X110709744Y-64300000D02*
X111025000Y-64615256D01*
X120800000Y-58250000D02*
X122925000Y-58250000D01*
X108250000Y-70000000D02*
X109150000Y-69100000D01*
X108975000Y-67484744D02*
X108975000Y-64615256D01*
X109150000Y-69100000D02*
X110000000Y-69100000D01*
X119550000Y-59500000D02*
X120800000Y-58250000D01*
X112550000Y-66140256D02*
X112550000Y-66700000D01*
X108500000Y-39650000D02*
X109850000Y-39650000D01*
X112550000Y-66700000D02*
X113850000Y-68000000D01*
%TO.N,Net-(D2-A)*%
X108250000Y-80750000D02*
X108250000Y-77250000D01*
%TO.N,VBUS*%
X111025000Y-67475000D02*
X111025000Y-66125000D01*
X111025000Y-66125000D02*
X110000000Y-65100000D01*
X120000000Y-70300000D02*
X113850000Y-70300000D01*
X125700000Y-76000000D02*
X120000000Y-70300000D01*
X113850000Y-70300000D02*
X111025000Y-67475000D01*
%TO.N,Net-(D1-A)*%
X126712500Y-81350429D02*
X126712500Y-79649570D01*
X125562930Y-82500000D02*
X126712500Y-81350429D01*
X118900000Y-90480000D02*
X118900000Y-89130000D01*
D33*
X114650000Y-90480000D02*
X114650000Y-89130000D01*
D32*
X118900000Y-86859340D02*
X123259340Y-82500000D01*
X126500000Y-79437071D02*
X126500000Y-78500000D01*
X118900000Y-89130000D02*
X118900000Y-86859340D01*
X126712500Y-79649570D02*
X126500000Y-79437071D01*
X126500000Y-78500000D02*
X129000000Y-76000000D01*
X123259340Y-82500000D02*
X125562930Y-82500000D01*
%TO.N,GND*%
D31*
X113110000Y-79000000D02*
X113000000Y-79000000D01*
X108500000Y-38380000D02*
X108500000Y-38250000D01*
X114875000Y-60050000D02*
X114950000Y-60050000D01*
X109400000Y-83350000D02*
X109500000Y-83250000D01*
X113850000Y-65700000D02*
X113800000Y-65700000D01*
X126000000Y-38380000D02*
X126130000Y-38380000D01*
X125700000Y-63000000D02*
X125750000Y-63000000D01*
X125500000Y-80500000D02*
X125750000Y-80750000D01*
X126130000Y-38380000D02*
X126250000Y-38500000D01*
X110029029Y-60303442D02*
X110000000Y-60274413D01*
X127900000Y-90150000D02*
X127900000Y-83850000D01*
X111535000Y-56140000D02*
X111535000Y-56465000D01*
X111475000Y-56500000D02*
X111335000Y-56640000D01*
X111535000Y-56465000D02*
X111500000Y-56500000D01*
X114950000Y-60050000D02*
X115000000Y-60000000D01*
X113800000Y-65700000D02*
X113750000Y-65750000D01*
X121450000Y-59500000D02*
X121500000Y-59500000D01*
X110000000Y-60250000D02*
X110029029Y-60303442D01*
X111500000Y-56500000D02*
X111475000Y-56500000D01*
X109400000Y-89650000D02*
X109500000Y-89750000D01*
X106375000Y-80750000D02*
X106500000Y-80750000D01*
X110000000Y-60274413D02*
X110000000Y-60250000D01*
%TO.N,Net-(J1-CC2)*%
D32*
X115500000Y-89130000D02*
X115500000Y-85750000D01*
X123635026Y-80500000D02*
X123675000Y-80500000D01*
X120490000Y-80760000D02*
X122421238Y-80760000D01*
X122681238Y-80500000D02*
X123675000Y-80500000D01*
X122421238Y-80760000D02*
X122681238Y-80500000D01*
X115500000Y-85750000D02*
X120490000Y-80760000D01*
%TO.N,RX*%
X125540000Y-43460000D02*
X124750000Y-44250000D01*
X114380000Y-78707708D02*
X113750553Y-78078261D01*
X126000000Y-43460000D02*
X125540000Y-43460000D01*
X114380000Y-79000000D02*
X114380000Y-78707708D01*
%TO.N,TX*%
X109124571Y-63900000D02*
X111404594Y-63900000D01*
X112550000Y-65045406D02*
X115712500Y-61882906D01*
X115650000Y-80850000D02*
X110200000Y-86300000D01*
X106859314Y-66165257D02*
X109124571Y-63900000D01*
X112570000Y-55090000D02*
X125470000Y-42190000D01*
X115712500Y-61882906D02*
X115712500Y-60659448D01*
X113461948Y-57190000D02*
X110785000Y-57190000D01*
X110785000Y-55090000D02*
X112570000Y-55090000D01*
X111404594Y-63900000D02*
X112550000Y-65045406D01*
X110200000Y-86300000D02*
X110200000Y-91400000D01*
X125470000Y-42190000D02*
X126000000Y-42190000D01*
X110200000Y-91400000D02*
X104000000Y-91400000D01*
X115971948Y-60400000D02*
X115971948Y-59700000D01*
X106859314Y-73640686D02*
X106859314Y-66165257D01*
X104000000Y-91400000D02*
X104000000Y-76500000D01*
X110785000Y-57190000D02*
X110785000Y-55090000D01*
X115650000Y-79000000D02*
X115650000Y-80850000D01*
X115712500Y-60659448D02*
X115971948Y-60400000D01*
X104000000Y-76500000D02*
X106859314Y-73640686D01*
X115971948Y-59700000D02*
X113461948Y-57190000D01*
%TO.N,D+*%
X124172244Y-81500000D02*
X124487500Y-81184744D01*
X116350000Y-89130000D02*
X116350000Y-85650000D01*
X116350000Y-89130000D02*
X116550000Y-89330000D01*
X120500000Y-81500000D02*
X124172244Y-81500000D01*
X123115552Y-79500000D02*
X122255552Y-80360000D01*
X117200000Y-90049239D02*
X117200000Y-90480000D01*
X124487500Y-79737500D02*
X124250000Y-79500000D01*
X116550000Y-89330000D02*
X116550000Y-89399239D01*
X124487500Y-81184744D02*
X124487500Y-79737500D01*
X124250000Y-79500000D02*
X123115552Y-79500000D01*
X116350000Y-85650000D02*
X120500000Y-81500000D01*
X116550000Y-89399239D02*
X117200000Y-90049239D01*
X118575001Y-80360000D02*
X118190000Y-79974999D01*
X118190000Y-79974999D02*
X118190000Y-79000000D01*
X122255552Y-80360000D02*
X118575001Y-80360000D01*
%TO.N,D-*%
X126312500Y-79815256D02*
X124222244Y-77725000D01*
X117200000Y-85365686D02*
X120465686Y-82100000D01*
X116350000Y-90480000D02*
X116353776Y-90480000D01*
X119460000Y-77960000D02*
X119460000Y-79000000D01*
X120465686Y-82100000D02*
X125397244Y-82100000D01*
X125397244Y-82100000D02*
X126312500Y-81184744D01*
X124222244Y-77725000D02*
X119695000Y-77725000D01*
X116353776Y-90480000D02*
X116356777Y-90476999D01*
X117200000Y-89130000D02*
X117200000Y-85365686D01*
X119695000Y-77725000D02*
X119460000Y-77960000D01*
X126312500Y-81184744D02*
X126312500Y-79815256D01*
%TO.N,DTR*%
X111587500Y-62250000D02*
X111587500Y-63337500D01*
X111587500Y-63337500D02*
X111750000Y-63500000D01*
X116750000Y-72000000D02*
X116920000Y-72170000D01*
X116920000Y-75024999D02*
X116920000Y-74050000D01*
X116920000Y-72170000D02*
X116920000Y-74050000D01*
%TO.N,RTS*%
X115750000Y-73950000D02*
X115650000Y-74050000D01*
X119587500Y-63250000D02*
X118500000Y-63250000D01*
X115750000Y-72250000D02*
X115750000Y-73950000D01*
%TO.N,Net-(J1-CC1)*%
X118050000Y-91050000D02*
X118300000Y-91300000D01*
X130250000Y-84250000D02*
X128625000Y-82625000D01*
X118050000Y-90480000D02*
X118050000Y-91050000D01*
D33*
X128087500Y-82087500D02*
X128087500Y-80500000D01*
X128625000Y-82625000D02*
X128087500Y-82087500D01*
D32*
X130250000Y-90750000D02*
X130250000Y-84250000D01*
X129700000Y-91300000D02*
X130250000Y-90750000D01*
X118300000Y-91300000D02*
X129700000Y-91300000D01*
%TO.N,Net-(Q2-B)*%
X119162500Y-61000000D02*
X121412500Y-63250000D01*
X116750000Y-61000000D02*
X119162500Y-61000000D01*
%TO.N,EN*%
D33*
X127600000Y-68000000D02*
X128850000Y-66750000D01*
D32*
X124100000Y-83850000D02*
X124800000Y-83850000D01*
X107087500Y-59640552D02*
X107087500Y-58959448D01*
X107970000Y-40920000D02*
X108500000Y-40920000D01*
X110250000Y-57500000D02*
X110385000Y-57365000D01*
X130400000Y-76350000D02*
X130400000Y-38400000D01*
X127062500Y-81495403D02*
X127062500Y-79504595D01*
X130400000Y-38400000D02*
X129600000Y-37600000D01*
X109550000Y-41440000D02*
X108490000Y-41440000D01*
X124800000Y-83850000D02*
X126750000Y-81900000D01*
X111500000Y-44890000D02*
X109550000Y-42940000D01*
X110385000Y-54924315D02*
X110619315Y-54690000D01*
X126000000Y-61000000D02*
X126000000Y-59500000D01*
X129600000Y-37600000D02*
X112770000Y-37600000D01*
X108125000Y-61200000D02*
X108962500Y-60362500D01*
X110385000Y-57365000D02*
X110385000Y-54924315D01*
X108903052Y-59900000D02*
X107346948Y-59900000D01*
X110250000Y-58900000D02*
X110250000Y-57500000D01*
X108903052Y-58700000D02*
X109103052Y-58900000D01*
D33*
X127600000Y-68000000D02*
X127600000Y-66150000D01*
D32*
X124100000Y-90150000D02*
X124100000Y-83850000D01*
X112770000Y-37600000D02*
X109450000Y-40920000D01*
X110619315Y-54690000D02*
X111500000Y-54690000D01*
X107346948Y-59900000D02*
X107087500Y-59640552D01*
X107087500Y-58959448D02*
X107346948Y-58700000D01*
X108962500Y-60362500D02*
X108962500Y-59909448D01*
D33*
X108500000Y-40920000D02*
X105960000Y-40920000D01*
D32*
X109550000Y-42940000D02*
X109550000Y-41440000D01*
D33*
X128850000Y-66750000D02*
X130375000Y-66750000D01*
D32*
X127062500Y-79504595D02*
X127000000Y-79442095D01*
X109103052Y-58900000D02*
X110250000Y-58900000D01*
X126750000Y-81807903D02*
X127062500Y-81495403D01*
X109450000Y-40920000D02*
X108500000Y-40920000D01*
X127612500Y-79137500D02*
X130400000Y-76350000D01*
X126750000Y-81900000D02*
X126750000Y-81807903D01*
X108490000Y-41440000D02*
X107970000Y-40920000D01*
X109103052Y-59700000D02*
X108903052Y-59900000D01*
X107346948Y-58700000D02*
X108903052Y-58700000D01*
X111500000Y-54690000D02*
X111500000Y-44890000D01*
X108962500Y-59909448D02*
X109171948Y-59700000D01*
D33*
X105960000Y-40920000D02*
X105000000Y-41880000D01*
D32*
X109171948Y-59700000D02*
X109103052Y-59700000D01*
X127112500Y-79137500D02*
X127612500Y-79137500D01*
X127000000Y-79250000D02*
X127112500Y-79137500D01*
X127000000Y-79442095D02*
X127000000Y-79250000D01*
D33*
X127600000Y-66150000D02*
X127750000Y-66000000D01*
%TO.N,Net-(Q1-B)*%
D32*
X110462500Y-59300000D02*
X113412500Y-62250000D01*
X108125000Y-59300000D02*
X110462500Y-59300000D01*
%TO.N,IO36*%
X108500000Y-42190000D02*
X108500000Y-42500000D01*
X106920000Y-42500000D02*
X105000000Y-44420000D01*
X108500000Y-42500000D02*
X106920000Y-42500000D01*
%TO.N,IO39*%
X108500000Y-43460000D02*
X107970000Y-43460000D01*
X107970000Y-43460000D02*
X105000000Y-46430000D01*
X105000000Y-46430000D02*
X105000000Y-46960000D01*
%TO.N,IO34*%
X108500000Y-44730000D02*
X107970000Y-44730000D01*
X107970000Y-44730000D02*
X106150000Y-46550000D01*
X106150000Y-48350000D02*
X105000000Y-49500000D01*
X106150000Y-46550000D02*
X106150000Y-48350000D01*
%TO.N,IO35*%
X107550000Y-46000000D02*
X106550000Y-47000000D01*
X106550000Y-47000000D02*
X106550000Y-50490000D01*
X106550000Y-50490000D02*
X105000000Y-52040000D01*
X108500000Y-46000000D02*
X107550000Y-46000000D01*
%TO.N,IO32*%
X108500000Y-47270000D02*
X107550000Y-47270000D01*
X106950000Y-47870000D02*
X106950000Y-52630000D01*
X107550000Y-47270000D02*
X106950000Y-47870000D01*
X106950000Y-52630000D02*
X105000000Y-54580000D01*
%TO.N,IO33*%
X107350000Y-54770000D02*
X105000000Y-57120000D01*
X108500000Y-48540000D02*
X107550000Y-48540000D01*
X107350000Y-48740000D02*
X107350000Y-54770000D01*
X107550000Y-48540000D02*
X107350000Y-48740000D01*
%TO.N,IO25*%
X109985000Y-57199314D02*
X109850000Y-57334315D01*
X109850000Y-57650000D02*
X109134369Y-58365631D01*
X109134369Y-58365631D02*
X109068737Y-58300000D01*
X106687500Y-58793762D02*
X106687500Y-59660000D01*
X107181262Y-58300000D02*
X106687500Y-58793762D01*
X109850000Y-57334315D02*
X109850000Y-57650000D01*
X109030000Y-49810000D02*
X111000000Y-51780000D01*
X106687500Y-59660000D02*
X105000000Y-59660000D01*
X109985000Y-54758629D02*
X109985000Y-57199314D01*
X111000000Y-51780000D02*
X111000000Y-54190000D01*
X110453629Y-54290000D02*
X109985000Y-54758629D01*
X108500000Y-49810000D02*
X109030000Y-49810000D01*
X110900000Y-54290000D02*
X110453629Y-54290000D01*
X109068737Y-58300000D02*
X107181262Y-58300000D01*
X111000000Y-54190000D02*
X110900000Y-54290000D01*
%TO.N,IO26*%
X103850000Y-61050000D02*
X105000000Y-62200000D01*
X103850000Y-59183654D02*
X103850000Y-61050000D01*
X109030000Y-51080000D02*
X109550000Y-51600000D01*
X104523654Y-58510000D02*
X103850000Y-59183654D01*
X108860000Y-55640000D02*
X105990000Y-58510000D01*
X108500000Y-51080000D02*
X108500000Y-51250000D01*
X108500000Y-51080000D02*
X109030000Y-51080000D01*
X105990000Y-58510000D02*
X104523654Y-58510000D01*
X109550000Y-51600000D02*
X109550000Y-55640000D01*
X109550000Y-55640000D02*
X108860000Y-55640000D01*
%TO.N,IO27*%
X108500000Y-52350000D02*
X108500000Y-52819998D01*
%TO.N,IO14*%
X108500000Y-53620000D02*
X108469998Y-53620000D01*
X108469998Y-53620000D02*
X108000000Y-54089998D01*
%TO.N,IO13*%
X112805000Y-56140000D02*
X112805000Y-55695000D01*
X112805000Y-55695000D02*
X113500000Y-55000000D01*
%TO.N,IO4*%
X126000000Y-53620000D02*
X126000000Y-54089998D01*
%TO.N,IO16*%
X126000000Y-52350000D02*
X126200000Y-52350000D01*
X126200000Y-52350000D02*
X126600000Y-52750000D01*
%TO.N,IO17*%
X129000000Y-56506346D02*
X129000000Y-57420000D01*
X126530000Y-51080000D02*
X127050000Y-51600000D01*
X127050000Y-54556346D02*
X129000000Y-56506346D01*
X127050000Y-51600000D02*
X127050000Y-54556346D01*
X126000000Y-51080000D02*
X126530000Y-51080000D01*
%TO.N,IO5*%
X126530000Y-49810000D02*
X127450000Y-50730000D01*
X127450000Y-50730000D02*
X127450000Y-53330000D01*
X127450000Y-53330000D02*
X129000000Y-54880000D01*
X126000000Y-49810000D02*
X126530000Y-49810000D01*
%TO.N,IO18*%
X127850000Y-49860000D02*
X127850000Y-51190000D01*
X126000000Y-48540000D02*
X126530000Y-48540000D01*
X127850000Y-51190000D02*
X129000000Y-52340000D01*
X126530000Y-48540000D02*
X127850000Y-49860000D01*
%TO.N,IO19*%
X126000000Y-47270000D02*
X126470000Y-47270000D01*
X126470000Y-47270000D02*
X129000000Y-49800000D01*
%TO.N,IO21*%
X126470000Y-44730000D02*
X129000000Y-47260000D01*
X126000000Y-44730000D02*
X126470000Y-44730000D01*
%TO.N,IO22*%
X127850000Y-43570000D02*
X129000000Y-44720000D01*
X127850000Y-42240000D02*
X127850000Y-43570000D01*
X126530000Y-40920000D02*
X127850000Y-42240000D01*
X126000000Y-40920000D02*
X126530000Y-40920000D01*
%TO.N,IO23*%
X126470000Y-39650000D02*
X129000000Y-42180000D01*
X126000000Y-39650000D02*
X126470000Y-39650000D01*
%TD*%
M02*
